<?xml version="1.0" encoding="UTF-8" standalone="no"?>
<!-- Created with Inkscape (http://www.inkscape.org/) -->

<svg
   xmlns:dc="http://purl.org/dc/elements/1.1/"
   xmlns:cc="http://creativecommons.org/ns#"
   xmlns:rdf="http://www.w3.org/1999/02/22-rdf-syntax-ns#"
   xmlns:svg="http://www.w3.org/2000/svg"
   xmlns="http://www.w3.org/2000/svg"
   xmlns:sodipodi="http://sodipodi.sourceforge.net/DTD/sodipodi-0.dtd"
   xmlns:inkscape="http://www.inkscape.org/namespaces/inkscape"
   width="18"
   height="18"
   id="svg3859"
   version="1.1"
   inkscape:version="0.48.4 r9939"
   sodipodi:docname="close_focused_normal.svg">
  <defs
     id="defs3861" />
  <sodipodi:namedview
     id="base"
     pagecolor="#ffffff"
     bordercolor="#666666"
     borderopacity="1.0"
     inkscape:pageopacity="0.0"
     inkscape:pageshadow="2"
     inkscape:zoom="16"
     inkscape:cx="14.283781"
     inkscape:cy="6.5349995"
     inkscape:current-layer="layer1"
     showgrid="false"
     inkscape:grid-bbox="true"
     inkscape:document-units="px"
     inkscape:window-width="1190"
     inkscape:window-height="630"
     inkscape:window-x="262"
     inkscape:window-y="212"
     inkscape:window-maximized="0">
    <inkscape:grid
       type="xygrid"
       id="grid3895"
       empspacing="5"
       visible="true"
       enabled="true"
       snapvisiblegridlinesonly="true" />
  </sodipodi:namedview>
  <metadata
     id="metadata3864">
    <rdf:RDF>
      <cc:Work
         rdf:about="">
        <dc:format>image/svg+xml</dc:format>
        <dc:type
           rdf:resource="http://purl.org/dc/dcmitype/StillImage" />
        <dc:title></dc:title>
      </cc:Work>
    </rdf:RDF>
  </metadata>
  <g
     id="layer1"
     inkscape:label="Layer 1"
     inkscape:groupmode="layer"
     transform="translate(0,2)">
    <g
       id="g3885">
      <path
         style="fill:#ffffff;fill-opacity:0.72156863;stroke:none"
         d="M 9,5 C 7.3431457,5 6,6.3431457 6,8 6,9.656854 7.3431457,11 9,11 10.656854,11 12,9.656854 12,8 12,6.3431457 10.656854,5 9,5 z m 0,1 c 1.10457,0 2,0.8954305 2,2 0,1.10457 -0.89543,2 -2,2 C 7.8954305,10 7,9.10457 7,8 7,6.8954305 7.8954305,6 9,6 z"
         id="path3883"
         inkscape:connector-curvature="0" />
      <path
         inkscape:connector-curvature="0"
         id="path3107"
         d="M 9,4 C 7.3431457,4 6,5.3431457 6,7 6,8.656854 7.3431457,10 9,10 10.656854,10 12,8.656854 12,7 12,5.3431457 10.656854,4 9,4 z m 0,1 c 1.10457,0 2,0.8954305 2,2 C 11,8.10457 10.10457,9 9,9 7.8954305,9 7,8.10457 7,7 7,5.8954305 7.8954305,5 9,5 z"
         style="fill:#4d4d4d;fill-opacity:1;stroke:none" />
    </g>
  </g>
</svg>
