/* XPM */
static char * close_prelight_xpm[] = {
"27 28 144 2",
"  	c None",
". 	c #6A6A6A",
"+ 	c #F5F5F5",
"@ 	c #E4E4E4",
"# 	c #E4E4E3",
"$ 	c #E3E4E4",
"% 	c #E3E3E4",
"& 	c #E4E3E3",
"* 	c #E3E3E3",
"= 	c #E3E4E3",
"- 	c #E4E3E4",
"; 	c #E2E3E3",
"> 	c #E3E2E2",
", 	c #E3E3E2",
"' 	c #E2E2E2",
") 	c #E3E2E3",
"! 	c #DDDEDD",
"~ 	c #D2D1D1",
"{ 	c #C7C7C7",
"] 	c #C2C2C2",
"^ 	c #C0C0C0",
"/ 	c #C3C3C3",
"( 	c #D1D1D1",
"_ 	c #DFDEDE",
": 	c #E2E3E2",
"< 	c #E2E2E1",
"[ 	c #E1E1E2",
"} 	c #E2E1E2",
"| 	c #E1E2E2",
"1 	c #E0E0E0",
"2 	c #CFCFCF",
"3 	c #C1C1C1",
"4 	c #BFBFBF",
"5 	c #DFDFE0",
"6 	c #E1E1E1",
"7 	c #E1E2E1",
"8 	c #C9C9C9",
"9 	c #D6D6D6",
"0 	c #EBEBEB",
"a 	c #F8F8F8",
"b 	c #FDFDFD",
"c 	c #D5D5D5",
"d 	c #DEDFDE",
"e 	c #E2E1E1",
"f 	c #E1E0E1",
"g 	c #E0E1E1",
"h 	c #E1E0E0",
"i 	c #DFDFDF",
"j 	c #CBCBCB",
"k 	c #F1F1F1",
"l 	c #F0F0F0",
"m 	c #E0E1E0",
"n 	c #E0E0E1",
"o 	c #D2D2D2",
"p 	c #C4C4C4",
"q 	c #C6C6C6",
"r 	c #F6F6F6",
"s 	c #FBFBFB",
"t 	c #C5C5C5",
"u 	c #E0E0DF",
"v 	c #DFE0E0",
"w 	c #DCDCDD",
"x 	c #EFEFEF",
"y 	c #FAFAFA",
"z 	c #EEEEEE",
"A 	c #DFE0DF",
"B 	c #E0DFE0",
"C 	c #909090",
"D 	c #B7B7B7",
"E 	c #DFDEDF",
"F 	c #E5E5E5",
"G 	c #F7F7F7",
"H 	c #B9B9B9",
"I 	c #4F4F4F",
"J 	c #B1B1B1",
"K 	c #B6B6B6",
"L 	c #B4B4B4",
"M 	c #DFDFDE",
"N 	c #DEDEDE",
"O 	c #BCBCBC",
"P 	c #F9F9F9",
"Q 	c #BBBBBB",
"R 	c #8A8A8A",
"S 	c #BDBDBD",
"T 	c #DEDDDD",
"U 	c #DDDDDD",
"V 	c #F2F2F2",
"W 	c #F4F4F4",
"X 	c #919191",
"Y 	c #4D4D4D",
"Z 	c #8B8B8B",
"` 	c #DDDEDE",
" .	c #DDDCDC",
"..	c #DDDCDD",
"+.	c #D4D4D4",
"@.	c #ECECEC",
"#.	c #B3B3B3",
"$.	c #8E8E8E",
"%.	c #AEAEAE",
"&.	c #DCDDDD",
"*.	c #DCDDDC",
"=.	c #DDDDDC",
"-.	c #D7D7D7",
";.	c #B2B2B2",
">.	c #ADADAD",
",.	c #DCDCDC",
"'.	c #DBDCDC",
").	c #DADADA",
"!.	c #CACACA",
"~.	c #8F8F8F",
"{.	c #DADAD9",
"].	c #DBDBDC",
"^.	c #DCDBDB",
"/.	c #D8D8D8",
"(.	c #BABABA",
"_.	c #EDEDED",
":.	c #DBDBDB",
"<.	c #DBDADB",
"[.	c #E8E8E8",
"}.	c #D0D0D0",
"|.	c #DADBDB",
"1.	c #DBDADA",
"2.	c #DBDBDA",
"3.	c #DADADB",
"4.	c #DADBDA",
"5.	c #EAEAEA",
"6.	c #D9D9DA",
"7.	c #D9DAD9",
"8.	c #DAD9DA",
"9.	c #D9DADA",
"0.	c #D9D9D9",
"a.	c #B8B8B8",
"b.	c #D9D8D9",
"c.	c #D8D9D9",
"d.	c #D9D8D8",
"e.	c #D8D9D8",
"f.	c #D7D8D8",
"g.	c #D7D8D7",
"h.	c #D7D7D8",
"i.	c #D8D7D8",
"j.	c #D6D7D6",
"k.	c #D6D6D7",
"l.	c #D6D7D7",
"m.	c #D7D6D6",
". . . . . . . . . . . . . . . . . . . . . . . . . . . ",
"+ + + + + + + + + + + + + + + + + + + + + + + + + + + ",
"@ # @ @ $ % @ @ @ @ @ # @ @ $ % @ @ # @ @ $ % @ @ @ @ ",
"& * = = $ - * $ @ - & * = = $ - * & * = = $ - * $ @ - ",
"* ; * > ; * * , * * * ; * > ; * * * ; * > ; * * , * * ",
"> , ' ) ' > ' ' ' ! ~ { ] ^ / { ( _ , ' ) ' > ' ' ' : ",
"' < [ } ' | } 1 2 3 ^ ^ 4 4 4 ^ ^ ] 2 5 } ' | } ' ' ' ",
"6 6 6 7 6 6 _ 8 3 ^ 9 0 a b a 0 c ^ 3 8 d 6 6 e e 6 7 ",
"f g h 6 6 i j ] { k b b b b b b b l { ] j i 6 6 6 6 m ",
"g m n n 1 o p q r s s s s s s s s s + t p o h g 1 1 1 ",
"u 5 u v w 8 ^ x y y y y y y y y y y y z ^ 8 w A B 1 1 ",
"i i i i 9 q o a a a C D a a a D C a a a o q 9 i i i i ",
"i i E _ o 3 F G G G H I J G K I L G G G F 3 o i M i N ",
"N N N N ( O l + + + P Q I R I K P + + + x S ( N N N N ",
"N T U U o Q V W W W W a X Y Z a W W W W V Q o ` U ` U ",
" .U ..U +.O @.V V V V #.I $.I %.V V V V @.O c U &.U U ",
"*. .*.=.-.4 1 l l l ;.I K P Q I >.l l l i ^ -.U *...,.",
",.,.'.,.).!.!.x x x ~.Q r x + Q ~.x x x j !.{.,.,.,.,.",
"].^.'.'.'./.(.' _._.a W _._._.W a _._.' (./.].:.,.:.^.",
":.:.:.<.:.,.2 O [.@.@.@.@.@.@.@.@.@.[.O }.,.:.|.1.2.:.",
"3.).4.).1.<.! j Q i 5.5.5.5.5.5.5.i Q j U 1.<.4.1.).1.",
").6.7.8.).9.0.i ( a.t /.* [.* /.p a.o i <.).9.0.{.).{.",
"0.7.0.0.0.0.0.0.N i 2 4 K ;.K 4 2 1 N 0.0.0.0.0.0.0.0.",
"b.c.b.0.b.d.0.0.c.9.N | * @ * 6 N 8.c.b.0.b.d.0.0.c.c.",
"/./././././.c./.e./././././././.c././././././.c./.e./.",
"f.g.g.-.h./.i.g.f.i.f.g.g.-.h./.i.f.g.g.-.h./.i.g.f.i.",
"-.-.-.-.-.-.-.-.-.-.-.-.-.-.-.-.-.-.-.-.-.-.-.-.-.-.-.",
"j.k.k.l.m.k.k.k.l.-.j.k.k.l.m.k.k.j.k.k.l.m.k.k.k.l.-."};
