/* XPM */
static char * close_pressed_xpm[] = {
"27 28 143 2",
"  	c None",
". 	c #6A6A6A",
"+ 	c #F5F5F5",
"@ 	c #E4E4E4",
"# 	c #E4E4E3",
"$ 	c #E3E4E4",
"% 	c #E3E3E4",
"& 	c #E4E3E3",
"* 	c #E3E3E3",
"= 	c #E3E4E3",
"- 	c #E4E3E4",
"; 	c #E2E3E3",
"> 	c #E3E2E2",
", 	c #E3E3E2",
"' 	c #E2E2E2",
") 	c #E3E2E3",
"! 	c #DDDEDD",
"~ 	c #D2D1D1",
"{ 	c #C7C7C7",
"] 	c #C2C2C2",
"^ 	c #C0C0C0",
"/ 	c #C3C3C3",
"( 	c #D1D1D1",
"_ 	c #DFDEDE",
": 	c #E2E3E2",
"< 	c #E2E2E1",
"[ 	c #E1E1E2",
"} 	c #E2E1E2",
"| 	c #E1E2E2",
"1 	c #E0E0E0",
"2 	c #CFCFCF",
"3 	c #BFBFBF",
"4 	c #AFAFAF",
"5 	c #A1A1A1",
"6 	c #9A9A9A",
"7 	c #979797",
"8 	c #DFDFE0",
"9 	c #E1E1E1",
"0 	c #E1E2E1",
"a 	c #C9C9C9",
"b 	c #B5B5B5",
"c 	c #9F9F9F",
"d 	c #ABABAB",
"e 	c #BBBBBB",
"f 	c #C4C4C4",
"g 	c #C8C8C8",
"h 	c #AAAAAA",
"i 	c #DEDFDE",
"j 	c #E2E1E1",
"k 	c #E1E0E1",
"l 	c #E0E1E1",
"m 	c #E1E0E0",
"n 	c #DFDFDF",
"o 	c #CBCBCB",
"p 	c #B3B3B3",
"q 	c #A5A5A5",
"r 	c #E0E1E0",
"s 	c #E0E0E1",
"t 	c #D2D2D2",
"u 	c #A8A8A8",
"v 	c #CDCDCD",
"w 	c #A9A9A9",
"x 	c #E0E0DF",
"y 	c #DFE0E0",
"z 	c #DCDCDD",
"A 	c #ACACAC",
"B 	c #DFE0DF",
"C 	c #E0DFE0",
"D 	c #D6D6D6",
"E 	c #BEBEBE",
"F 	c #BABABA",
"G 	c #818181",
"H 	c #B9B9B9",
"I 	c #DFDEDF",
"J 	c #B8B8B8",
"K 	c #CACACA",
"L 	c #D4D4D4",
"M 	c #B0B0B0",
"N 	c #4F4F4F",
"O 	c #9D9D9D",
"P 	c #A0A0A0",
"Q 	c #DFDFDE",
"R 	c #DEDEDE",
"S 	c #D3D3D3",
"T 	c #E6E6E6",
"U 	c #7F7F7F",
"V 	c #B6B6B6",
"W 	c #E7E7E7",
"X 	c #DEDDDD",
"Y 	c #DDDDDD",
"Z 	c #D7D7D7",
"` 	c #D8D8D8",
" .	c #919191",
"..	c #4D4D4D",
"+.	c #8B8B8B",
"@.	c #E8E8E8",
"#.	c #DDDEDE",
"$.	c #DDDCDC",
"%.	c #DDDCDD",
"&.	c #C1C1C1",
"*.	c #DADADA",
"=.	c #A4A4A4",
"-.	c #8E8E8E",
";.	c #D5D5D5",
">.	c #DCDDDD",
",.	c #DCDDDC",
"'.	c #DDDDDC",
").	c #DCDCDC",
"!.	c #F2F2F2",
"~.	c #DBDCDC",
"{.	c #EBEBEB",
"].	c #D0D0D0",
"^.	c #DADAD9",
"/.	c #DBDBDC",
"(.	c #DCDBDB",
"_.	c #D9D9D9",
":.	c #CECECE",
"<.	c #F3F3F3",
"[.	c #EDEDED",
"}.	c #DBDBDB",
"|.	c #DBDADB",
"1.	c #DADBDB",
"2.	c #DBDADA",
"3.	c #DBDBDA",
"4.	c #DADADB",
"5.	c #DADBDA",
"6.	c #E5E5E5",
"7.	c #D9D9DA",
"8.	c #D9DAD9",
"9.	c #DAD9DA",
"0.	c #D9DADA",
"a.	c #D9D8D9",
"b.	c #D8D9D9",
"c.	c #D9D8D8",
"d.	c #D8D9D8",
"e.	c #D7D8D8",
"f.	c #D7D8D7",
"g.	c #D7D7D8",
"h.	c #D8D7D8",
"i.	c #D6D7D6",
"j.	c #D6D6D7",
"k.	c #D6D7D7",
"l.	c #D7D6D6",
". . . . . . . . . . . . . . . . . . . . . . . . . . . ",
"+ + + + + + + + + + + + + + + + + + + + + + + + + + + ",
"@ # @ @ $ % @ @ @ @ @ # @ @ $ % @ @ # @ @ $ % @ @ @ @ ",
"& * = = $ - * $ @ - & * = = $ - * & * = = $ - * $ @ - ",
"* ; * > ; * * , * * * ; * > ; * * * ; * > ; * * , * * ",
"> , ' ) ' > ' ' ' ! ~ { ] ^ / { ( _ , ' ) ' > ' ' ' : ",
"' < [ } ' | } 1 2 3 4 5 6 7 6 5 4 ^ 2 8 } ' | } ' ' ' ",
"9 9 9 0 9 9 _ a b c d e f g f e h c b a i 9 9 j j 9 0 ",
"k l m 9 9 n o p q / o o o o o o o ] q p o n 9 9 9 9 r ",
"l r s s 1 t e u a v v v v v v v v v a w e t m l 1 1 1 ",
"x 8 x y z { A { 2 2 2 2 2 2 2 2 2 2 2 g A g z B C 1 1 ",
"n n n n D E F t t t G c t t t c G t t t H E D n n n n ",
"n n I _ t J K L L L M N O L P N A L L L a H t n Q n R ",
"R R R R ( J S D D D T e N U N V W D D D S J ( R R R R ",
"R X Y Y t e Z ` ` ` ` W  ...+.@.` ` ` ` Z e t #.Y #.Y ",
"$.Y %.Y L &.` *.*.*.*.=.N -.N P *.*.*.*.Z &.;.Y >.Y Y ",
",.$.,.'.Z a ;.).).).q N V !.e N 5 ).).).L a Z Y ,.%.).",
").).~.).*.( 2 R R R +.e {.R {.e +.R R R ].( ^.).).).).",
"/.(.~.~.~._.:.Y 9 9 <.[.9 9 9 [.<.9 9 Y :._./.}.).}.(.",
"}.}.}.|.}.).*.;.9 * * * * * * * * * 9 ;.*.).}.1.2.3.}.",
"4.*.5.*.2.|.! )._.' 6.6.6.6.6.6.6.' _.).Y 2.|.5.2.*.2.",
"*.7.8.9.*.0._.n n Y 9 @ T W T * 9 Y n n |.*.0._.^.*.^.",
"_.8._._._._._._.R ' ' ' 9 9 9 ' ' ' R _._._._._._._._.",
"a.b.a._.a.c._._.b.0.R | * @ * 9 R 9.b.a._.a.c._._.b.b.",
"` ` ` ` ` ` b.` d.` ` ` ` ` ` ` b.` ` ` ` ` ` b.` d.` ",
"e.f.f.Z g.` h.f.e.h.e.f.f.Z g.` h.e.f.f.Z g.` h.f.e.h.",
"Z Z Z Z Z Z Z Z Z Z Z Z Z Z Z Z Z Z Z Z Z Z Z Z Z Z Z ",
"i.j.j.k.l.j.j.j.k.Z i.j.j.k.l.j.j.i.j.j.k.l.j.j.j.k.Z "};
