/* XPM */
static char * close_inactive_xpm[] = {
"27 28 122 2",
"  	c None",
". 	c #6A6A6A",
"+ 	c #F5F5F5",
"@ 	c #E4E4E4",
"# 	c #E4E4E3",
"$ 	c #E3E4E4",
"% 	c #E3E3E4",
"& 	c #E4E3E3",
"* 	c #E3E3E3",
"= 	c #E3E4E3",
"- 	c #E4E3E4",
"; 	c #E2E3E3",
"> 	c #E3E2E2",
", 	c #E3E3E2",
"' 	c #E2E2E2",
") 	c #E3E2E3",
"! 	c #E2E3E2",
"~ 	c #E2E2E1",
"{ 	c #E1E1E2",
"] 	c #E2E1E2",
"^ 	c #E1E2E2",
"/ 	c #DFDFDF",
"( 	c #CDCDCD",
"_ 	c #BFBFBE",
": 	c #B7B7B7",
"< 	c #B3B3B3",
"[ 	c #BEBFBF",
"} 	c #CECDCE",
"| 	c #E1E1E1",
"1 	c #E1E2E1",
"2 	c #E2E1E1",
"3 	c #D1D1D1",
"4 	c #B8B8B8",
"5 	c #C5C5C5",
"6 	c #D6D6D6",
"7 	c #E5E5E5",
"8 	c #D7D7D7",
"9 	c #E1E0E1",
"0 	c #E0E1E1",
"a 	c #E1E0E0",
"b 	c #CBCBCB",
"c 	c #BABABA",
"d 	c #DCDCDC",
"e 	c #E6E6E6",
"f 	c #CBCACA",
"g 	c #E0E1E0",
"h 	c #E0E0E1",
"i 	c #E0E0E0",
"j 	c #D0D1D1",
"k 	c #D0D0D1",
"l 	c #E0E0DF",
"m 	c #DFDFE0",
"n 	c #DFE0E0",
"o 	c #DCDCDD",
"p 	c #DFE0DF",
"q 	c #E0DFE0",
"r 	c #CCCCCC",
"s 	c #999999",
"t 	c #B5B5B5",
"u 	c #C4C4C4",
"v 	c #DFDEDF",
"w 	c #DFDEDE",
"x 	c #DEDFDF",
"y 	c #BEBEBE",
"z 	c #B6B6B6",
"A 	c #686868",
"B 	c #B2B2B2",
"C 	c #DFDFDE",
"D 	c #DEDEDE",
"E 	c #969696",
"F 	c #DEDDDD",
"G 	c #DDDDDD",
"H 	c #B4B4B4",
"I 	c #979797",
"J 	c #666666",
"K 	c #DDDEDE",
"L 	c #DDDCDC",
"M 	c #DDDCDD",
"N 	c #DCDDDD",
"O 	c #DCDDDC",
"P 	c #DDDDDC",
"Q 	c #BDBEBD",
"R 	c #BFBEBE",
"S 	c #DBDCDC",
"T 	c #CACACA",
"U 	c #DCDCDB",
"V 	c #DBDBDC",
"W 	c #DCDBDB",
"X 	c #D8D8D9",
"Y 	c #DBDBDB",
"Z 	c #D8D9D9",
"` 	c #DBDADB",
" .	c #CCCDCD",
"..	c #DADBDB",
"+.	c #DBDADA",
"@.	c #DBDBDA",
"#.	c #DADADB",
"$.	c #DADADA",
"%.	c #DADBDA",
"&.	c #C8C7C7",
"*.	c #C7C8C7",
"=.	c #D9D9DA",
"-.	c #D9DAD9",
";.	c #DAD9DA",
">.	c #D9DADA",
",.	c #D9D9D9",
"'.	c #DADAD9",
").	c #CCCCCD",
"!.	c #C9C9C9",
"~.	c #BDBDBD",
"{.	c #D9D8D9",
"].	c #D9D8D8",
"^.	c #D8D8D8",
"/.	c #D8D9D8",
"(.	c #D7D8D8",
"_.	c #D7D8D7",
":.	c #D7D7D8",
"<.	c #D8D7D8",
"[.	c #D6D7D6",
"}.	c #D6D6D7",
"|.	c #D6D7D7",
"1.	c #D7D6D6",
". . . . . . . . . . . . . . . . . . . . . . . . . . . ",
"+ + + + + + + + + + + + + + + + + + + + + + + + + + + ",
"@ # @ @ $ % @ @ @ @ @ # @ @ $ % @ @ # @ @ $ % @ @ @ @ ",
"& * = = $ - * $ @ - & * = = $ - * & * = = $ - * $ @ - ",
"* ; * > ; * * , * * * ; * > ; * * * ; * > ; * * , * * ",
"> , ' ) ' > ' ' ' ! > , ' ) ' > ' > , ' ) ' > ' ' ' ! ",
"' ~ { ] ' ^ ] ' ' / ( _ : < : [ } / ~ { ] ' ^ ] ' ' ' ",
"| | | 1 | | 2 2 3 4 5 6 | 7 | 8 5 4 3 | 1 | | 2 2 | 1 ",
"9 0 a | | | | b c d e e e e e e e d c f | | | | | | g ",
"0 g h h i a j c ' e e e e e e e e e | c k i a 0 i i i ",
"l m l n m o : d e e e e e e e e e e e d 4 o m p q i i ",
"/ / / / / r 5 e e e s t e e e t s e e e u r / / / / / ",
"/ / v w x y 8 e e e z A B e z A B e e e 8 y / / C / D ",
"D D D D D : | e e e e t A E A t e e e e | : D D D D D ",
"D F G G F H 7 e e e e e I J I e e e e e 7 H D K G K G ",
"L G M G G : | e e e e t A E A t e e e e | : G G N G G ",
"O L O P L Q 8 e e e z A B e z A B e e e 6 R O G O M d ",
"d d S d d T 5 e e e s t e e e t s e e e u T U d d d d ",
"V W S S S X : d e e e e e e e e e e e Y 4 Z V Y d Y W ",
"Y Y Y ` Y Y  .c | e e e e e e e e e | c ( Y Y ..+.@.Y ",
"#.$.%.$.+.` %.&.c d e e e e e e e Y c *.$.+.` %.+.$.+.",
"$.=.-.;.$.>.,.'.r : u 8 | 7 | 6 u : ).-.;.$.>.,.'.$.'.",
",.-.,.,.,.,.,.,.,.6 !.~.z < z y !.8 -.,.,.,.,.,.,.,.,.",
"{.Z {.,.{.].,.,.Z Z {.Z {.,.{.].,.{.Z {.,.{.].,.,.Z Z ",
"^.^.^.^.^.^.Z ^./.^.^.^.^.^.^.^.Z ^.^.^.^.^.^.Z ^./.^.",
"(._._.8 :.^.<._.(.<.(._._.8 :.^.<.(._._.8 :.^.<._.(.<.",
"8 8 8 8 8 8 8 8 8 8 8 8 8 8 8 8 8 8 8 8 8 8 8 8 8 8 8 ",
"[.}.}.|.1.}.}.}.|.8 [.}.}.|.1.}.}.[.}.}.|.1.}.}.}.|.8 "};
