/* XPM */
static char * close_active_xpm[] = {
"27 28 143 2",
"  	c None",
". 	c #6A6A6A",
"+ 	c #F5F5F5",
"@ 	c #E4E4E4",
"# 	c #E4E4E3",
"$ 	c #E3E4E4",
"% 	c #E3E3E4",
"& 	c #E4E3E3",
"* 	c #E3E3E3",
"= 	c #E3E4E3",
"- 	c #E4E3E4",
"; 	c #E2E3E3",
"> 	c #E3E2E2",
", 	c #E3E3E2",
"' 	c #E2E2E2",
") 	c #E3E2E3",
"! 	c #DDDEDD",
"~ 	c #D2D1D1",
"{ 	c #C7C7C7",
"] 	c #C2C2C2",
"^ 	c #C0C0C0",
"/ 	c #C3C3C3",
"( 	c #D1D1D1",
"_ 	c #DFDEDE",
": 	c #E2E3E2",
"< 	c #E2E2E1",
"[ 	c #E1E1E2",
"} 	c #E2E1E2",
"| 	c #E1E2E2",
"1 	c #E0E0E0",
"2 	c #CFCFCF",
"3 	c #C1C1C1",
"4 	c #BFBFBF",
"5 	c #DFDFE0",
"6 	c #E1E1E1",
"7 	c #E1E2E1",
"8 	c #C9C9C9",
"9 	c #D4D4D4",
"0 	c #E8E8E8",
"a 	c #F4F4F4",
"b 	c #F8F8F8",
"c 	c #D3D3D3",
"d 	c #DEDFDE",
"e 	c #E2E1E1",
"f 	c #E1E0E1",
"g 	c #E0E1E1",
"h 	c #E1E0E0",
"i 	c #DFDFDF",
"j 	c #CBCBCB",
"k 	c #C6C6C6",
"l 	c #ECECEC",
"m 	c #F6F6F6",
"n 	c #EBEBEB",
"o 	c #E0E1E0",
"p 	c #E0E0E1",
"q 	c #D2D2D2",
"r 	c #C4C4C4",
"s 	c #F0F0F0",
"t 	c #EFEFEF",
"u 	c #C5C5C5",
"v 	c #E0E0DF",
"w 	c #DFE0E0",
"x 	c #DCDCDD",
"y 	c #F1F1F1",
"z 	c #E7E7E7",
"A 	c #DFE0DF",
"B 	c #E0DFE0",
"C 	c #D6D6D6",
"D 	c #CECECE",
"E 	c #8D8D8D",
"F 	c #B1B1B1",
"G 	c #DFDEDF",
"H 	c #DEDEDE",
"I 	c #B6B6B6",
"J 	c #4F4F4F",
"K 	c #ABABAB",
"L 	c #AFAFAF",
"M 	c #DFDFDE",
"N 	c #BCBCBC",
"O 	c #E6E6E6",
"P 	c #EAEAEA",
"Q 	c #F2F2F2",
"R 	c #BBBBBB",
"S 	c #868686",
"T 	c #F3F3F3",
"U 	c #E5E5E5",
"V 	c #BDBDBD",
"W 	c #DEDDDD",
"X 	c #DDDDDD",
"Y 	c #919191",
"Z 	c #4D4D4D",
"` 	c #8B8B8B",
" .	c #DDDEDE",
"..	c #DDDCDC",
"+.	c #DDDCDD",
"@.	c #AAAAAA",
"#.	c #8E8E8E",
"$.	c #A6A6A6",
"%.	c #D5D5D5",
"&.	c #DCDDDD",
"*.	c #DCDDDC",
"=.	c #DDDDDC",
"-.	c #D7D7D7",
";.	c #A9A9A9",
">.	c #A5A5A5",
",.	c #DCDCDC",
"'.	c #DBDCDC",
").	c #DADADA",
"!.	c #CACACA",
"~.	c #DADAD9",
"{.	c #DBDBDC",
"].	c #DCDBDB",
"^.	c #D8D8D8",
"/.	c #BABABA",
"(.	c #DBDBDB",
"_.	c #DBDADB",
":.	c #B9B9B9",
"<.	c #D0D0D0",
"[.	c #DADBDB",
"}.	c #DBDADA",
"|.	c #DBDBDA",
"1.	c #DADADB",
"2.	c #DADBDA",
"3.	c #D9D9DA",
"4.	c #D9DAD9",
"5.	c #DAD9DA",
"6.	c #D9DADA",
"7.	c #D9D9D9",
"8.	c #B8B8B8",
"9.	c #BEBEBE",
"0.	c #B2B2B2",
"a.	c #D9D8D9",
"b.	c #D8D9D9",
"c.	c #D9D8D8",
"d.	c #D8D9D8",
"e.	c #D7D8D8",
"f.	c #D7D8D7",
"g.	c #D7D7D8",
"h.	c #D8D7D8",
"i.	c #D6D7D6",
"j.	c #D6D6D7",
"k.	c #D6D7D7",
"l.	c #D7D6D6",
". . . . . . . . . . . . . . . . . . . . . . . . . . . ",
"+ + + + + + + + + + + + + + + + + + + + + + + + + + + ",
"@ # @ @ $ % @ @ @ @ @ # @ @ $ % @ @ # @ @ $ % @ @ @ @ ",
"& * = = $ - * $ @ - & * = = $ - * & * = = $ - * $ @ - ",
"* ; * > ; * * , * * * ; * > ; * * * ; * > ; * * , * * ",
"> , ' ) ' > ' ' ' ! ~ { ] ^ / { ( _ , ' ) ' > ' ' ' : ",
"' < [ } ' | } 1 2 3 ^ ^ 4 4 4 ^ ^ ] 2 5 } ' | } ' ' ' ",
"6 6 6 7 6 6 _ 8 3 ^ 9 0 a b a 0 c ^ 3 8 d 6 6 e e 6 7 ",
"f g h 6 6 i j ] k l m m m m m m m n k ] j i 6 6 6 6 o ",
"g o p p 1 q r k s a a a a a a a a a t u r q h g 1 1 1 ",
"v 5 v w x 8 ^ 0 y y y y y y y y y y y z ^ 8 x A B 1 1 ",
"i i i i C k D t t t E F t t t F E t t t D k C i i i i ",
"i i G _ q 3 H l l l I J K l L J F l l l H 3 q i M i H ",
"H H H H ( N O P P P Q R J S J I T P P P U V ( H H H H ",
"H W X X q R O z z z z s Y Z ` y z z z z O R q  .X  .X ",
"..X +.X 9 N 1 @ @ @ @ @.J #.J $.@ @ @ @ 1 N %.X &.X X ",
"*...*.=.-.4 C ' ' ' ;.J I a R J >.' ' ' %.^ -.X *.+.,.",
",.,.'.,.).!.u i i i ` R l i n R ` i i i u !.~.,.,.,.,.",
"{.].'.'.'.^./.%.X X Q P X X X P Q X X %./.^.{.(.,.(.].",
"(.(.(._.(.,.2 /.-.).).).).).).).).).-.:.<.,.(.[.}.|.(.",
"1.).2.).}._.! j :.( ^.^.^.^.^.^.^.( :.j X }._.2.}.).}.",
").3.4.5.).6.7.i ( 8.4 !.( 9 ( !.9.8.q i _.).6.7.~.).~.",
"7.4.7.7.7.7.7.7.H i 2 4 I 0.I 4 2 1 H 7.7.7.7.7.7.7.7.",
"a.b.a.7.a.c.7.7.b.6.H | * @ * 6 H 5.b.a.7.a.c.7.7.b.b.",
"^.^.^.^.^.^.b.^.d.^.^.^.^.^.^.^.b.^.^.^.^.^.^.b.^.d.^.",
"e.f.f.-.g.^.h.f.e.h.e.f.f.-.g.^.h.e.f.f.-.g.^.h.f.e.h.",
"-.-.-.-.-.-.-.-.-.-.-.-.-.-.-.-.-.-.-.-.-.-.-.-.-.-.-.",
"i.j.j.k.l.j.j.j.k.-.i.j.j.k.l.j.j.i.j.j.k.l.j.j.j.k.-."};
