/* XPM */
static char * hide_pressed_xpm[] = {
"27 28 140 2",
"  	c None",
". 	c #6A6A6A",
"+ 	c #F5F5F5",
"@ 	c #E4E4E4",
"# 	c #E4E4E3",
"$ 	c #E3E4E4",
"% 	c #E3E3E4",
"& 	c #E4E3E3",
"* 	c #E3E3E3",
"= 	c #E3E4E3",
"- 	c #E4E3E4",
"; 	c #E2E3E3",
"> 	c #E3E2E2",
", 	c #E3E3E2",
"' 	c #E2E2E2",
") 	c #E3E2E3",
"! 	c #DDDEDD",
"~ 	c #D2D1D1",
"{ 	c #C7C7C7",
"] 	c #C2C2C2",
"^ 	c #C0C0C0",
"/ 	c #C3C3C3",
"( 	c #D1D1D1",
"_ 	c #DFDEDE",
": 	c #E2E3E2",
"< 	c #E2E2E1",
"[ 	c #E1E1E2",
"} 	c #E2E1E2",
"| 	c #E1E2E2",
"1 	c #E0E0E0",
"2 	c #CFCFCF",
"3 	c #BFBFBF",
"4 	c #AFAFAF",
"5 	c #A1A1A1",
"6 	c #9A9A9A",
"7 	c #979797",
"8 	c #DFDFE0",
"9 	c #E1E1E1",
"0 	c #E1E2E1",
"a 	c #C9C9C9",
"b 	c #B5B5B5",
"c 	c #9F9F9F",
"d 	c #ABABAB",
"e 	c #BBBBBB",
"f 	c #C4C4C4",
"g 	c #C8C8C8",
"h 	c #AAAAAA",
"i 	c #DEDFDE",
"j 	c #E2E1E1",
"k 	c #E1E0E1",
"l 	c #E0E1E1",
"m 	c #E1E0E0",
"n 	c #DFDFDF",
"o 	c #CBCBCB",
"p 	c #B3B3B3",
"q 	c #A5A5A5",
"r 	c #E0E1E0",
"s 	c #E0E0E1",
"t 	c #D2D2D2",
"u 	c #A8A8A8",
"v 	c #CDCDCD",
"w 	c #A9A9A9",
"x 	c #E0E0DF",
"y 	c #DFE0E0",
"z 	c #DCDCDD",
"A 	c #ACACAC",
"B 	c #DFE0DF",
"C 	c #E0DFE0",
"D 	c #D6D6D6",
"E 	c #BEBEBE",
"F 	c #BABABA",
"G 	c #B9B9B9",
"H 	c #DFDEDF",
"I 	c #B8B8B8",
"J 	c #CACACA",
"K 	c #D4D4D4",
"L 	c #DFDFDE",
"M 	c #DEDEDE",
"N 	c #D3D3D3",
"O 	c #D5D5D5",
"P 	c #7E7E7E",
"Q 	c #5B5B5B",
"R 	c #C1C1C1",
"S 	c #DEDDDD",
"T 	c #DDDDDD",
"U 	c #D7D7D7",
"V 	c #D8D8D8",
"W 	c #EFEFEF",
"X 	c #858585",
"Y 	c #5A5A5A",
"Z 	c #B1B1B1",
"` 	c #5D5D5D",
" .	c #808080",
"..	c #EDEDED",
"+.	c #DDDEDE",
"@.	c #DDDCDC",
"#.	c #DDDCDD",
"$.	c #DADADA",
"%.	c #DBDBDB",
"&.	c #F0F0F0",
"*.	c #4E4E4E",
"=.	c #7D7D7D",
"-.	c #F1F1F1",
";.	c #DCDDDD",
">.	c #DCDDDC",
",.	c #DDDDDC",
"'.	c #DCDCDC",
").	c #838383",
"!.	c #DBDCDC",
"~.	c #D0D0D0",
"{.	c #DADAD9",
"].	c #DBDBDC",
"^.	c #DCDBDB",
"/.	c #D9D9D9",
"(.	c #CECECE",
"_.	c #DBDADB",
":.	c #DADBDB",
"<.	c #DBDADA",
"[.	c #DBDBDA",
"}.	c #DADADB",
"|.	c #DADBDA",
"1.	c #E5E5E5",
"2.	c #D9D9DA",
"3.	c #D9DAD9",
"4.	c #DAD9DA",
"5.	c #D9DADA",
"6.	c #E6E6E6",
"7.	c #E7E7E7",
"8.	c #D9D8D9",
"9.	c #D8D9D9",
"0.	c #D9D8D8",
"a.	c #D8D9D8",
"b.	c #D7D8D8",
"c.	c #D7D8D7",
"d.	c #D7D7D8",
"e.	c #D8D7D8",
"f.	c #D6D7D6",
"g.	c #D6D6D7",
"h.	c #D6D7D7",
"i.	c #D7D6D6",
". . . . . . . . . . . . . . . . . . . . . . . . . . . ",
"+ + + + + + + + + + + + + + + + + + + + + + + + + + + ",
"@ # @ @ $ % @ @ @ @ @ # @ @ $ % @ @ # @ @ $ % @ @ @ @ ",
"& * = = $ - * $ @ - & * = = $ - * & * = = $ - * $ @ - ",
"* ; * > ; * * , * * * ; * > ; * * * ; * > ; * * , * * ",
"> , ' ) ' > ' ' ' ! ~ { ] ^ / { ( _ , ' ) ' > ' ' ' : ",
"' < [ } ' | } 1 2 3 4 5 6 7 6 5 4 ^ 2 8 } ' | } ' ' ' ",
"9 9 9 0 9 9 _ a b c d e f g f e h c b a i 9 9 j j 9 0 ",
"k l m 9 9 n o p q / o o o o o o o ] q p o n 9 9 9 9 r ",
"l r s s 1 t e u a v v v v v v v v v a w e t m l 1 1 1 ",
"x 8 x y z { A { 2 2 2 2 2 2 2 2 2 2 2 g A g z B C 1 1 ",
"n n n n D E F t t t t t t t t t t t t t G E D n n n n ",
"n n H _ t I J K K K q 3 K K K ^ q K K K a G t n L n M ",
"M M M M ( I N D D O P Q R D ] Q P O D D N I ( M M M M ",
"M S T T t e U V V V W X Y Z `  ...V V V U e t +.T +.T ",
"@.T #.T K R V $.$.$.%.&.P *.=.-.%.$.$.$.U R O T ;.T T ",
">.@.>.,.U a O '.'.'.'.T W ).W T '.'.'.'.K a U T >.#.'.",
"'.'.!.'.$.( 2 M M M M M 1 + 1 M M M M M ~.( {.'.'.'.'.",
"].^.!.!.!./.(.T 9 9 9 9 9 9 9 9 9 9 9 T (./.].%.'.%.^.",
"%.%.%._.%.'.$.O 9 * * * * * * * * * 9 O $.'.%.:.<.[.%.",
"}.$.|.$.<._.! './.' 1.1.1.1.1.1.1.' /.'.T <._.|.<.$.<.",
"$.2.3.4.$.5./.n n T 9 @ 6.7.6.* 9 T n n _.$.5./.{.$.{.",
"/.3././././././.M ' ' ' 9 9 9 ' ' ' M /./././././././.",
"8.9.8./.8.0././.9.5.M | * @ * 9 M 4.9.8./.8.0././.9.9.",
"V V V V V V 9.V a.V V V V V V V 9.V V V V V V 9.V a.V ",
"b.c.c.U d.V e.c.b.e.b.c.c.U d.V e.b.c.c.U d.V e.c.b.e.",
"U U U U U U U U U U U U U U U U U U U U U U U U U U U ",
"f.g.g.h.i.g.g.g.h.U f.g.g.h.i.g.g.f.g.g.h.i.g.g.g.h.U "};
