/* XPM */
static char * hide_active_xpm[] = {
"27 28 141 2",
"  	c None",
". 	c #6A6A6A",
"+ 	c #F5F5F5",
"@ 	c #E4E4E4",
"# 	c #E4E4E3",
"$ 	c #E3E4E4",
"% 	c #E3E3E4",
"& 	c #E4E3E3",
"* 	c #E3E3E3",
"= 	c #E3E4E3",
"- 	c #E4E3E4",
"; 	c #E2E3E3",
"> 	c #E3E2E2",
", 	c #E3E3E2",
"' 	c #E2E2E2",
") 	c #E3E2E3",
"! 	c #DDDEDD",
"~ 	c #D2D1D1",
"{ 	c #C7C7C7",
"] 	c #C2C2C2",
"^ 	c #C0C0C0",
"/ 	c #C3C3C3",
"( 	c #D1D1D1",
"_ 	c #DFDEDE",
": 	c #E2E3E2",
"< 	c #E2E2E1",
"[ 	c #E1E1E2",
"} 	c #E2E1E2",
"| 	c #E1E2E2",
"1 	c #E0E0E0",
"2 	c #CFCFCF",
"3 	c #C1C1C1",
"4 	c #BFBFBF",
"5 	c #DFDFE0",
"6 	c #E1E1E1",
"7 	c #E1E2E1",
"8 	c #C9C9C9",
"9 	c #D4D4D4",
"0 	c #E8E8E8",
"a 	c #F4F4F4",
"b 	c #F8F8F8",
"c 	c #D3D3D3",
"d 	c #DEDFDE",
"e 	c #E2E1E1",
"f 	c #E1E0E1",
"g 	c #E0E1E1",
"h 	c #E1E0E0",
"i 	c #DFDFDF",
"j 	c #CBCBCB",
"k 	c #C6C6C6",
"l 	c #ECECEC",
"m 	c #F6F6F6",
"n 	c #EBEBEB",
"o 	c #E0E1E0",
"p 	c #E0E0E1",
"q 	c #D2D2D2",
"r 	c #C4C4C4",
"s 	c #F0F0F0",
"t 	c #EFEFEF",
"u 	c #C5C5C5",
"v 	c #E0E0DF",
"w 	c #DFE0E0",
"x 	c #DCDCDD",
"y 	c #F1F1F1",
"z 	c #E7E7E7",
"A 	c #DFE0DF",
"B 	c #E0DFE0",
"C 	c #D6D6D6",
"D 	c #CECECE",
"E 	c #DFDEDF",
"F 	c #DEDEDE",
"G 	c #B5B5B5",
"H 	c #D5D5D5",
"I 	c #DFDFDE",
"J 	c #BCBCBC",
"K 	c #E6E6E6",
"L 	c #EAEAEA",
"M 	c #E9E9E9",
"N 	c #828282",
"O 	c #5D5D5D",
"P 	c #E5E5E5",
"Q 	c #BDBDBD",
"R 	c #DEDDDD",
"S 	c #DDDDDD",
"T 	c #BBBBBB",
"U 	c #858585",
"V 	c #5B5B5B",
"W 	c #5E5E5E",
"X 	c #808080",
"Y 	c #F2F2F2",
"Z 	c #DDDEDE",
"` 	c #DDDCDC",
" .	c #DDDCDD",
"..	c #F3F3F3",
"+.	c #7E7E7E",
"@.	c #4E4E4E",
"#.	c #7D7D7D",
"$.	c #DCDDDD",
"%.	c #DCDDDC",
"&.	c #DDDDDC",
"*.	c #D7D7D7",
"=.	c #838383",
"-.	c #DCDCDC",
";.	c #DBDCDC",
">.	c #DADADA",
",.	c #CACACA",
"'.	c #DADAD9",
").	c #DBDBDC",
"!.	c #DCDBDB",
"~.	c #D8D8D8",
"{.	c #BABABA",
"].	c #DBDBDB",
"^.	c #DBDADB",
"/.	c #B9B9B9",
"(.	c #D0D0D0",
"_.	c #DADBDB",
":.	c #DBDADA",
"<.	c #DBDBDA",
"[.	c #DADADB",
"}.	c #DADBDA",
"|.	c #D9D9DA",
"1.	c #D9DAD9",
"2.	c #DAD9DA",
"3.	c #D9DADA",
"4.	c #D9D9D9",
"5.	c #B8B8B8",
"6.	c #BEBEBE",
"7.	c #B6B6B6",
"8.	c #B2B2B2",
"9.	c #D9D8D9",
"0.	c #D8D9D9",
"a.	c #D9D8D8",
"b.	c #D8D9D8",
"c.	c #D7D8D8",
"d.	c #D7D8D7",
"e.	c #D7D7D8",
"f.	c #D8D7D8",
"g.	c #D6D7D6",
"h.	c #D6D6D7",
"i.	c #D6D7D7",
"j.	c #D7D6D6",
". . . . . . . . . . . . . . . . . . . . . . . . . . . ",
"+ + + + + + + + + + + + + + + + + + + + + + + + + + + ",
"@ # @ @ $ % @ @ @ @ @ # @ @ $ % @ @ # @ @ $ % @ @ @ @ ",
"& * = = $ - * $ @ - & * = = $ - * & * = = $ - * $ @ - ",
"* ; * > ; * * , * * * ; * > ; * * * ; * > ; * * , * * ",
"> , ' ) ' > ' ' ' ! ~ { ] ^ / { ( _ , ' ) ' > ' ' ' : ",
"' < [ } ' | } 1 2 3 ^ ^ 4 4 4 ^ ^ ] 2 5 } ' | } ' ' ' ",
"6 6 6 7 6 6 _ 8 3 ^ 9 0 a b a 0 c ^ 3 8 d 6 6 e e 6 7 ",
"f g h 6 6 i j ] k l m m m m m m m n k ] j i 6 6 6 6 o ",
"g o p p 1 q r k s a a a a a a a a a t u r q h g 1 1 1 ",
"v 5 v w x 8 ^ 0 y y y y y y y y y y y z ^ 8 x A B 1 1 ",
"i i i i C k D t t t t t t t t t t t t t D k C i i i i ",
"i i E _ q 3 F l l l G 9 l l l H G l l l F 3 q i I i F ",
"F F F F ( J K L L M N O q L c O N M L L P Q ( F F F F ",
"F R S S q T K z z z a U V T W X Y z z z K T q Z S Z S ",
"` S  .S 9 J 1 @ @ @ P ..+.@.#.a P @ @ @ 1 J H S $.S S ",
"%.` %.&.*.4 C ' ' ' ' * y =.y * ' ' ' ' H ^ *.S %. .-.",
"-.-.;.-.>.,.u i i i i i 6 + 6 i i i i i u ,.'.-.-.-.-.",
").!.;.;.;.~.{.H S S S S S S S S S S S H {.~.).].-.].!.",
"].].].^.].-.2 {.*.>.>.>.>.>.>.>.>.>.*./.(.-.]._.:.<.].",
"[.>.}.>.:.^.! j /.( ~.~.~.~.~.~.~.( /.j S :.^.}.:.>.:.",
">.|.1.2.>.3.4.i ( 5.4 ,.( 9 ( ,.6.5.q i ^.>.3.4.'.>.'.",
"4.1.4.4.4.4.4.4.F i 2 4 7.8.7.4 2 1 F 4.4.4.4.4.4.4.4.",
"9.0.9.4.9.a.4.4.0.3.F | * @ * 6 F 2.0.9.4.9.a.4.4.0.0.",
"~.~.~.~.~.~.0.~.b.~.~.~.~.~.~.~.0.~.~.~.~.~.~.0.~.b.~.",
"c.d.d.*.e.~.f.d.c.f.c.d.d.*.e.~.f.c.d.d.*.e.~.f.d.c.f.",
"*.*.*.*.*.*.*.*.*.*.*.*.*.*.*.*.*.*.*.*.*.*.*.*.*.*.*.",
"g.h.h.i.j.h.h.h.i.*.g.h.h.i.j.h.h.g.h.h.i.j.h.h.h.i.*."};
