/* XPM */
static char * hide_prelight_xpm[] = {
"27 28 138 2",
"  	c None",
". 	c #6A6A6A",
"+ 	c #F5F5F5",
"@ 	c #E4E4E4",
"# 	c #E4E4E3",
"$ 	c #E3E4E4",
"% 	c #E3E3E4",
"& 	c #E4E3E3",
"* 	c #E3E3E3",
"= 	c #E3E4E3",
"- 	c #E4E3E4",
"; 	c #E2E3E3",
"> 	c #E3E2E2",
", 	c #E3E3E2",
"' 	c #E2E2E2",
") 	c #E3E2E3",
"! 	c #DDDEDD",
"~ 	c #D2D1D1",
"{ 	c #C7C7C7",
"] 	c #C2C2C2",
"^ 	c #C0C0C0",
"/ 	c #C3C3C3",
"( 	c #D1D1D1",
"_ 	c #DFDEDE",
": 	c #E2E3E2",
"< 	c #E2E2E1",
"[ 	c #E1E1E2",
"} 	c #E2E1E2",
"| 	c #E1E2E2",
"1 	c #E0E0E0",
"2 	c #CFCFCF",
"3 	c #C1C1C1",
"4 	c #BFBFBF",
"5 	c #DFDFE0",
"6 	c #E1E1E1",
"7 	c #E1E2E1",
"8 	c #C9C9C9",
"9 	c #D6D6D6",
"0 	c #EBEBEB",
"a 	c #F8F8F8",
"b 	c #FDFDFD",
"c 	c #D5D5D5",
"d 	c #DEDFDE",
"e 	c #E2E1E1",
"f 	c #E1E0E1",
"g 	c #E0E1E1",
"h 	c #E1E0E0",
"i 	c #DFDFDF",
"j 	c #CBCBCB",
"k 	c #F1F1F1",
"l 	c #F0F0F0",
"m 	c #E0E1E0",
"n 	c #E0E0E1",
"o 	c #D2D2D2",
"p 	c #C4C4C4",
"q 	c #C6C6C6",
"r 	c #F6F6F6",
"s 	c #FBFBFB",
"t 	c #C5C5C5",
"u 	c #E0E0DF",
"v 	c #DFE0E0",
"w 	c #DCDCDD",
"x 	c #EFEFEF",
"y 	c #FAFAFA",
"z 	c #EEEEEE",
"A 	c #DFE0DF",
"B 	c #E0DFE0",
"C 	c #DFDEDF",
"D 	c #E5E5E5",
"E 	c #F7F7F7",
"F 	c #BCBCBC",
"G 	c #DDDDDD",
"H 	c #DEDEDE",
"I 	c #DFDFDE",
"J 	c #F4F4F4",
"K 	c #858585",
"L 	c #5E5E5E",
"M 	c #DBDBDB",
"N 	c #DCDCDC",
"O 	c #BDBDBD",
"P 	c #DEDDDD",
"Q 	c #BBBBBB",
"R 	c #F2F2F2",
"S 	c #868686",
"T 	c #5C5C5C",
"U 	c #5F5F5F",
"V 	c #818181",
"W 	c #DDDEDE",
"X 	c #DDDCDC",
"Y 	c #DDDCDD",
"Z 	c #D4D4D4",
"` 	c #ECECEC",
" .	c #7F7F7F",
"..	c #4F4F4F",
"+.	c #7E7E7E",
"@.	c #DCDDDD",
"#.	c #DCDDDC",
"$.	c #DDDDDC",
"%.	c #D7D7D7",
"&.	c #838383",
"*.	c #DBDCDC",
"=.	c #DADADA",
"-.	c #CACACA",
";.	c #DADAD9",
">.	c #DBDBDC",
",.	c #DCDBDB",
"'.	c #D8D8D8",
").	c #BABABA",
"!.	c #EDEDED",
"~.	c #DBDADB",
"{.	c #E8E8E8",
"].	c #D0D0D0",
"^.	c #DADBDB",
"/.	c #DBDADA",
"(.	c #DBDBDA",
"_.	c #DADADB",
":.	c #DADBDA",
"<.	c #EAEAEA",
"[.	c #D9D9DA",
"}.	c #D9DAD9",
"|.	c #DAD9DA",
"1.	c #D9DADA",
"2.	c #D9D9D9",
"3.	c #B8B8B8",
"4.	c #B6B6B6",
"5.	c #B2B2B2",
"6.	c #D9D8D9",
"7.	c #D8D9D9",
"8.	c #D9D8D8",
"9.	c #D8D9D8",
"0.	c #D7D8D8",
"a.	c #D7D8D7",
"b.	c #D7D7D8",
"c.	c #D8D7D8",
"d.	c #D6D7D6",
"e.	c #D6D6D7",
"f.	c #D6D7D7",
"g.	c #D7D6D6",
". . . . . . . . . . . . . . . . . . . . . . . . . . . ",
"+ + + + + + + + + + + + + + + + + + + + + + + + + + + ",
"@ # @ @ $ % @ @ @ @ @ # @ @ $ % @ @ # @ @ $ % @ @ @ @ ",
"& * = = $ - * $ @ - & * = = $ - * & * = = $ - * $ @ - ",
"* ; * > ; * * , * * * ; * > ; * * * ; * > ; * * , * * ",
"> , ' ) ' > ' ' ' ! ~ { ] ^ / { ( _ , ' ) ' > ' ' ' : ",
"' < [ } ' | } 1 2 3 ^ ^ 4 4 4 ^ ^ ] 2 5 } ' | } ' ' ' ",
"6 6 6 7 6 6 _ 8 3 ^ 9 0 a b a 0 c ^ 3 8 d 6 6 e e 6 7 ",
"f g h 6 6 i j ] { k b b b b b b b l { ] j i 6 6 6 6 m ",
"g m n n 1 o p q r s s s s s s s s s + t p o h g 1 1 1 ",
"u 5 u v w 8 ^ x y y y y y y y y y y y z ^ 8 w A B 1 1 ",
"i i i i 9 q o a a a a a a a a a a a a a o q 9 i i i i ",
"i i C _ o 3 D E E E F G E E E H F E E E D 3 o i I i H ",
"H H H H ( F l + + J K L M + N L K J + + x O ( H H H H ",
"H P G G o Q R J J J a S T t U V r J J J R Q o W G W G ",
"X G Y G Z F ` R R R R a  ...+.a R R R R ` F c G @.G G ",
"#.X #.$.%.4 1 l l l l l + &.+ l l l l l i ^ %.G #.Y N ",
"N N *.N =.-.-.x x x x x x y x x x x x x j -.;.N N N N ",
">.,.*.*.*.'.).' !.!.!.!.!.!.!.!.!.!.!.' ).'.>.M N M ,.",
"M M M ~.M N 2 F {.` ` ` ` ` ` ` ` ` {.F ].N M ^./.(.M ",
"_.=.:.=./.~.! j Q i <.<.<.<.<.<.<.i Q j G /.~.:./.=./.",
"=.[.}.|.=.1.2.i ( 3.t '.* {.* '.p 3.o i ~.=.1.2.;.=.;.",
"2.}.2.2.2.2.2.2.H i 2 4 4.5.4.4 2 1 H 2.2.2.2.2.2.2.2.",
"6.7.6.2.6.8.2.2.7.1.H | * @ * 6 H |.7.6.2.6.8.2.2.7.7.",
"'.'.'.'.'.'.7.'.9.'.'.'.'.'.'.'.7.'.'.'.'.'.'.7.'.9.'.",
"0.a.a.%.b.'.c.a.0.c.0.a.a.%.b.'.c.0.a.a.%.b.'.c.a.0.c.",
"%.%.%.%.%.%.%.%.%.%.%.%.%.%.%.%.%.%.%.%.%.%.%.%.%.%.%.",
"d.e.e.f.g.e.e.e.f.%.d.e.e.f.g.e.e.d.e.e.f.g.e.e.e.f.%."};
