/* XPM */
static char * maximize_prelight_xpm[] = {
"27 28 139 2",
"  	c None",
". 	c #6A6A6A",
"+ 	c #F5F5F5",
"@ 	c #E4E4E4",
"# 	c #E4E4E3",
"$ 	c #E3E4E4",
"% 	c #E3E3E4",
"& 	c #E4E3E3",
"* 	c #E3E3E3",
"= 	c #E3E4E3",
"- 	c #E4E3E4",
"; 	c #E2E3E3",
"> 	c #E3E2E2",
", 	c #E3E3E2",
"' 	c #E2E2E2",
") 	c #E3E2E3",
"! 	c #DDDEDD",
"~ 	c #D2D1D1",
"{ 	c #C7C7C7",
"] 	c #C2C2C2",
"^ 	c #C0C0C0",
"/ 	c #C3C3C3",
"( 	c #D1D1D1",
"_ 	c #DFDEDE",
": 	c #E2E3E2",
"< 	c #E2E2E1",
"[ 	c #E1E1E2",
"} 	c #E2E1E2",
"| 	c #E1E2E2",
"1 	c #E0E0E0",
"2 	c #CFCFCF",
"3 	c #C1C1C1",
"4 	c #BFBFBF",
"5 	c #DFDFE0",
"6 	c #E1E1E1",
"7 	c #E1E2E1",
"8 	c #C9C9C9",
"9 	c #D6D6D6",
"0 	c #EBEBEB",
"a 	c #F8F8F8",
"b 	c #FDFDFD",
"c 	c #D5D5D5",
"d 	c #DEDFDE",
"e 	c #E2E1E1",
"f 	c #E1E0E1",
"g 	c #E0E1E1",
"h 	c #E1E0E0",
"i 	c #DFDFDF",
"j 	c #CBCBCB",
"k 	c #F1F1F1",
"l 	c #F0F0F0",
"m 	c #E0E1E0",
"n 	c #E0E0E1",
"o 	c #D2D2D2",
"p 	c #C4C4C4",
"q 	c #C6C6C6",
"r 	c #F6F6F6",
"s 	c #FBFBFB",
"t 	c #C5C5C5",
"u 	c #E0E0DF",
"v 	c #DFE0E0",
"w 	c #DCDCDD",
"x 	c #EFEFEF",
"y 	c #FAFAFA",
"z 	c #EEEEEE",
"A 	c #DFE0DF",
"B 	c #E0DFE0",
"C 	c #DFDEDF",
"D 	c #E5E5E5",
"E 	c #F7F7F7",
"F 	c #808080",
"G 	c #DFDFDE",
"H 	c #DEDEDE",
"I 	c #BCBCBC",
"J 	c #F2F2F2",
"K 	c #7C7C7C",
"L 	c #4F4F4F",
"M 	c #7B7B7B",
"N 	c #BDBDBD",
"O 	c #DEDDDD",
"P 	c #DDDDDD",
"Q 	c #BBBBBB",
"R 	c #F4F4F4",
"S 	c #838383",
"T 	c #5D5D5D",
"U 	c #CCCCCC",
"V 	c #606060",
"W 	c #7E7E7E",
"X 	c #DDDEDE",
"Y 	c #DDDCDC",
"Z 	c #DDDCDD",
"` 	c #D4D4D4",
" .	c #ECECEC",
"..	c #5F5F5F",
"+.	c #DCDDDD",
"@.	c #DCDDDC",
"#.	c #DDDDDC",
"$.	c #D7D7D7",
"%.	c #BEBEBE",
"&.	c #DCDCDC",
"*.	c #DBDCDC",
"=.	c #DADADA",
"-.	c #CACACA",
";.	c #DADAD9",
">.	c #DBDBDC",
",.	c #DCDBDB",
"'.	c #D8D8D8",
").	c #BABABA",
"!.	c #EDEDED",
"~.	c #DBDBDB",
"{.	c #DBDADB",
"].	c #E8E8E8",
"^.	c #D0D0D0",
"/.	c #DADBDB",
"(.	c #DBDADA",
"_.	c #DBDBDA",
":.	c #DADADB",
"<.	c #DADBDA",
"[.	c #EAEAEA",
"}.	c #D9D9DA",
"|.	c #D9DAD9",
"1.	c #DAD9DA",
"2.	c #D9DADA",
"3.	c #D9D9D9",
"4.	c #B8B8B8",
"5.	c #B6B6B6",
"6.	c #B2B2B2",
"7.	c #D9D8D9",
"8.	c #D8D9D9",
"9.	c #D9D8D8",
"0.	c #D8D9D8",
"a.	c #D7D8D8",
"b.	c #D7D8D7",
"c.	c #D7D7D8",
"d.	c #D8D7D8",
"e.	c #D6D7D6",
"f.	c #D6D6D7",
"g.	c #D6D7D7",
"h.	c #D7D6D6",
". . . . . . . . . . . . . . . . . . . . . . . . . . . ",
"+ + + + + + + + + + + + + + + + + + + + + + + + + + + ",
"@ # @ @ $ % @ @ @ @ @ # @ @ $ % @ @ # @ @ $ % @ @ @ @ ",
"& * = = $ - * $ @ - & * = = $ - * & * = = $ - * $ @ - ",
"* ; * > ; * * , * * * ; * > ; * * * ; * > ; * * , * * ",
"> , ' ) ' > ' ' ' ! ~ { ] ^ / { ( _ , ' ) ' > ' ' ' : ",
"' < [ } ' | } 1 2 3 ^ ^ 4 4 4 ^ ^ ] 2 5 } ' | } ' ' ' ",
"6 6 6 7 6 6 _ 8 3 ^ 9 0 a b a 0 c ^ 3 8 d 6 6 e e 6 7 ",
"f g h 6 6 i j ] { k b b b b b b b l { ] j i 6 6 6 6 m ",
"g m n n 1 o p q r s s s s s s s s s + t p o h g 1 1 1 ",
"u 5 u v w 8 ^ x y y y y y y y y y y y z ^ 8 w A B 1 1 ",
"i i i i 9 q o a a a a a a a a a a a a a o q 9 i i i i ",
"i i C _ o 3 D E E E E E k F k E E E E E D 3 o i G i H ",
"H H H H ( I l + + + + J K L M J + + + + x N ( H H H H ",
"H O P P o Q J R R R k S T U V W x R R R J Q o X P X P ",
"Y P Z P ` I  .J J k S ..* r @ ..S k J J  .I c P +.P P ",
"@.Y @.#.$.4 1 l l l %.' J l J * %.l l l i ^ $.P @.Z &.",
"&.&.*.&.=.-.-.x x x + k x x x k + x x x j -.;.&.&.&.&.",
">.,.*.*.*.'.).' !.!.!.!.!.!.!.!.!.!.!.' ).'.>.~.&.~.,.",
"~.~.~.{.~.&.2 I ]. . . . . . . . . .].I ^.&.~./.(._.~.",
":.=.<.=.(.{.! j Q i [.[.[.[.[.[.[.i Q j P (.{.<.(.=.(.",
"=.}.|.1.=.2.3.i ( 4.t '.* ].* '.p 4.o i {.=.2.3.;.=.;.",
"3.|.3.3.3.3.3.3.H i 2 4 5.6.5.4 2 1 H 3.3.3.3.3.3.3.3.",
"7.8.7.3.7.9.3.3.8.2.H | * @ * 6 H 1.8.7.3.7.9.3.3.8.8.",
"'.'.'.'.'.'.8.'.0.'.'.'.'.'.'.'.8.'.'.'.'.'.'.8.'.0.'.",
"a.b.b.$.c.'.d.b.a.d.a.b.b.$.c.'.d.a.b.b.$.c.'.d.b.a.d.",
"$.$.$.$.$.$.$.$.$.$.$.$.$.$.$.$.$.$.$.$.$.$.$.$.$.$.$.",
"e.f.f.g.h.f.f.f.g.$.e.f.f.g.h.f.f.e.f.f.g.h.f.f.f.g.$."};
