/* XPM */
static char * maximize_pressed_xpm[] = {
"27 28 138 2",
"  	c None",
". 	c #6A6A6A",
"+ 	c #F5F5F5",
"@ 	c #E4E4E4",
"# 	c #E4E4E3",
"$ 	c #E3E4E4",
"% 	c #E3E3E4",
"& 	c #E4E3E3",
"* 	c #E3E3E3",
"= 	c #E3E4E3",
"- 	c #E4E3E4",
"; 	c #E2E3E3",
"> 	c #E3E2E2",
", 	c #E3E3E2",
"' 	c #E2E2E2",
") 	c #E3E2E3",
"! 	c #DDDEDD",
"~ 	c #D2D1D1",
"{ 	c #C7C7C7",
"] 	c #C2C2C2",
"^ 	c #C0C0C0",
"/ 	c #C3C3C3",
"( 	c #D1D1D1",
"_ 	c #DFDEDE",
": 	c #E2E3E2",
"< 	c #E2E2E1",
"[ 	c #E1E1E2",
"} 	c #E2E1E2",
"| 	c #E1E2E2",
"1 	c #E0E0E0",
"2 	c #CFCFCF",
"3 	c #BFBFBF",
"4 	c #AFAFAF",
"5 	c #A1A1A1",
"6 	c #9A9A9A",
"7 	c #979797",
"8 	c #DFDFE0",
"9 	c #E1E1E1",
"0 	c #E1E2E1",
"a 	c #C9C9C9",
"b 	c #B5B5B5",
"c 	c #9F9F9F",
"d 	c #ABABAB",
"e 	c #BBBBBB",
"f 	c #C4C4C4",
"g 	c #C8C8C8",
"h 	c #AAAAAA",
"i 	c #DEDFDE",
"j 	c #E2E1E1",
"k 	c #E1E0E1",
"l 	c #E0E1E1",
"m 	c #E1E0E0",
"n 	c #DFDFDF",
"o 	c #CBCBCB",
"p 	c #B3B3B3",
"q 	c #A5A5A5",
"r 	c #E0E1E0",
"s 	c #E0E0E1",
"t 	c #D2D2D2",
"u 	c #A8A8A8",
"v 	c #CDCDCD",
"w 	c #A9A9A9",
"x 	c #E0E0DF",
"y 	c #DFE0E0",
"z 	c #DCDCDD",
"A 	c #ACACAC",
"B 	c #DFE0DF",
"C 	c #E0DFE0",
"D 	c #D6D6D6",
"E 	c #BEBEBE",
"F 	c #BABABA",
"G 	c #B9B9B9",
"H 	c #DFDEDF",
"I 	c #B8B8B8",
"J 	c #CACACA",
"K 	c #D4D4D4",
"L 	c #D0D0D0",
"M 	c #767676",
"N 	c #DFDFDE",
"O 	c #DEDEDE",
"P 	c #D3D3D3",
"Q 	c #747474",
"R 	c #4F4F4F",
"S 	c #737373",
"T 	c #DEDDDD",
"U 	c #DDDDDD",
"V 	c #D7D7D7",
"W 	c #D8D8D8",
"X 	c #7A7A7A",
"Y 	c #5C5C5C",
"Z 	c #CCCCCC",
"` 	c #5F5F5F",
" .	c #DDDEDE",
"..	c #DDDCDC",
"+.	c #DDDCDD",
"@.	c #C1C1C1",
"#.	c #DADADA",
"$.	c #D9D9D9",
"%.	c #7B7B7B",
"&.	c #5E5E5E",
"*.	c #D5D5D5",
"=.	c #DCDDDD",
"-.	c #DCDDDC",
";.	c #DDDDDC",
">.	c #DCDCDC",
",.	c #DBDCDC",
"'.	c #EAEAEA",
").	c #E9E9E9",
"!.	c #DADAD9",
"~.	c #DBDBDC",
"{.	c #DCDBDB",
"].	c #CECECE",
"^.	c #DBDBDB",
"/.	c #DBDADB",
"(.	c #DADBDB",
"_.	c #DBDADA",
":.	c #DBDBDA",
"<.	c #DADADB",
"[.	c #DADBDA",
"}.	c #E5E5E5",
"|.	c #D9D9DA",
"1.	c #D9DAD9",
"2.	c #DAD9DA",
"3.	c #D9DADA",
"4.	c #E6E6E6",
"5.	c #E7E7E7",
"6.	c #D9D8D9",
"7.	c #D8D9D9",
"8.	c #D9D8D8",
"9.	c #D8D9D8",
"0.	c #D7D8D8",
"a.	c #D7D8D7",
"b.	c #D7D7D8",
"c.	c #D8D7D8",
"d.	c #D6D7D6",
"e.	c #D6D6D7",
"f.	c #D6D7D7",
"g.	c #D7D6D6",
". . . . . . . . . . . . . . . . . . . . . . . . . . . ",
"+ + + + + + + + + + + + + + + + + + + + + + + + + + + ",
"@ # @ @ $ % @ @ @ @ @ # @ @ $ % @ @ # @ @ $ % @ @ @ @ ",
"& * = = $ - * $ @ - & * = = $ - * & * = = $ - * $ @ - ",
"* ; * > ; * * , * * * ; * > ; * * * ; * > ; * * , * * ",
"> , ' ) ' > ' ' ' ! ~ { ] ^ / { ( _ , ' ) ' > ' ' ' : ",
"' < [ } ' | } 1 2 3 4 5 6 7 6 5 4 ^ 2 8 } ' | } ' ' ' ",
"9 9 9 0 9 9 _ a b c d e f g f e h c b a i 9 9 j j 9 0 ",
"k l m 9 9 n o p q / o o o o o o o ] q p o n 9 9 9 9 r ",
"l r s s 1 t e u a v v v v v v v v v a w e t m l 1 1 1 ",
"x 8 x y z { A { 2 2 2 2 2 2 2 2 2 2 2 g A g z B C 1 1 ",
"n n n n D E F t t t t t t t t t t t t t G E D n n n n ",
"n n H _ t I J K K K K K L M L K K K K K a G t n N n O ",
"O O O O ( I P D D D D K Q R S K D D D D P I ( O O O O ",
"O T U U t e V W W W D X Y Z ` M K W W W V e t  .U  .U ",
"..U +.U K @.W #.#.$.%.&.9 @ ' &.%.$.#.#.V @.*.U =.U U ",
"-...-.;.V a *.>.>.>.F 9 9 >.9 ' F >.>.>.K a V U -.+.>.",
">.>.,.>.#.( 2 O O O '.* O O O * ).O O O L ( !.>.>.>.>.",
"~.{.,.,.,.$.].U 9 9 9 9 9 9 9 9 9 9 9 U ].$.~.^.>.^.{.",
"^.^.^./.^.>.#.*.9 * * * * * * * * * 9 *.#.>.^.(._.:.^.",
"<.#.[.#._./.! >.$.' }.}.}.}.}.}.}.' $.>.U _./.[._.#._.",
"#.|.1.2.#.3.$.n n U 9 @ 4.5.4.* 9 U n n /.#.3.$.!.#.!.",
"$.1.$.$.$.$.$.$.O ' ' ' 9 9 9 ' ' ' O $.$.$.$.$.$.$.$.",
"6.7.6.$.6.8.$.$.7.3.O | * @ * 9 O 2.7.6.$.6.8.$.$.7.7.",
"W W W W W W 7.W 9.W W W W W W W 7.W W W W W W 7.W 9.W ",
"0.a.a.V b.W c.a.0.c.0.a.a.V b.W c.0.a.a.V b.W c.a.0.c.",
"V V V V V V V V V V V V V V V V V V V V V V V V V V V ",
"d.e.e.f.g.e.e.e.f.V d.e.e.f.g.e.e.d.e.e.f.g.e.e.e.f.V "};
