/* XPM */
static char * maximize_inactive_xpm[] = {
"27 28 126 2",
"  	c None",
". 	c #6A6A6A",
"+ 	c #F5F5F5",
"@ 	c #E4E4E4",
"# 	c #E4E4E3",
"$ 	c #E3E4E4",
"% 	c #E3E3E4",
"& 	c #E4E3E3",
"* 	c #E3E3E3",
"= 	c #E3E4E3",
"- 	c #E4E3E4",
"; 	c #E2E3E3",
"> 	c #E3E2E2",
", 	c #E3E3E2",
"' 	c #E2E2E2",
") 	c #E3E2E3",
"! 	c #E2E3E2",
"~ 	c #E2E2E1",
"{ 	c #E1E1E2",
"] 	c #E2E1E2",
"^ 	c #E1E2E2",
"/ 	c #DFDFDF",
"( 	c #CDCDCD",
"_ 	c #BFBFBE",
": 	c #B7B7B7",
"< 	c #B3B3B3",
"[ 	c #BEBFBF",
"} 	c #CECDCE",
"| 	c #E1E1E1",
"1 	c #E1E2E1",
"2 	c #E2E1E1",
"3 	c #D1D1D1",
"4 	c #B8B8B8",
"5 	c #C5C5C5",
"6 	c #D6D6D6",
"7 	c #E5E5E5",
"8 	c #D7D7D7",
"9 	c #E1E0E1",
"0 	c #E0E1E1",
"a 	c #E1E0E0",
"b 	c #CBCBCB",
"c 	c #BABABA",
"d 	c #DCDCDC",
"e 	c #E6E6E6",
"f 	c #CBCACA",
"g 	c #E0E1E0",
"h 	c #E0E0E1",
"i 	c #E0E0E0",
"j 	c #D0D1D1",
"k 	c #D0D0D1",
"l 	c #E0E0DF",
"m 	c #DFDFE0",
"n 	c #DFE0E0",
"o 	c #DCDCDD",
"p 	c #DFE0DF",
"q 	c #E0DFE0",
"r 	c #CCCCCC",
"s 	c #C4C4C4",
"t 	c #DFDEDF",
"u 	c #DFDEDE",
"v 	c #DEDFDF",
"w 	c #BEBEBE",
"x 	c #8C8C8C",
"y 	c #DFDFDE",
"z 	c #DEDEDE",
"A 	c #8A8A8A",
"B 	c #686868",
"C 	c #898989",
"D 	c #DEDDDD",
"E 	c #DDDDDD",
"F 	c #B4B4B4",
"G 	c #8F8F8F",
"H 	c #727272",
"I 	c #C2C2C2",
"J 	c #737373",
"K 	c #8B8B8B",
"L 	c #DDDEDE",
"M 	c #DDDCDC",
"N 	c #DDDCDD",
"O 	c #909090",
"P 	c #D4D4D4",
"Q 	c #DCDDDD",
"R 	c #DCDDDC",
"S 	c #DDDDDC",
"T 	c #BDBEBD",
"U 	c #BFBEBE",
"V 	c #DBDCDC",
"W 	c #CACACA",
"X 	c #DCDCDB",
"Y 	c #DBDBDC",
"Z 	c #DCDBDB",
"` 	c #D8D8D9",
" .	c #DBDBDB",
"..	c #D8D9D9",
"+.	c #DBDADB",
"@.	c #CCCDCD",
"#.	c #DADBDB",
"$.	c #DBDADA",
"%.	c #DBDBDA",
"&.	c #DADADB",
"*.	c #DADADA",
"=.	c #DADBDA",
"-.	c #C8C7C7",
";.	c #C7C8C7",
">.	c #D9D9DA",
",.	c #D9DAD9",
"'.	c #DAD9DA",
").	c #D9DADA",
"!.	c #D9D9D9",
"~.	c #DADAD9",
"{.	c #CCCCCD",
"].	c #C9C9C9",
"^.	c #BDBDBD",
"/.	c #B6B6B6",
"(.	c #D9D8D9",
"_.	c #D9D8D8",
":.	c #D8D8D8",
"<.	c #D8D9D8",
"[.	c #D7D8D8",
"}.	c #D7D8D7",
"|.	c #D7D7D8",
"1.	c #D8D7D8",
"2.	c #D6D7D6",
"3.	c #D6D6D7",
"4.	c #D6D7D7",
"5.	c #D7D6D6",
". . . . . . . . . . . . . . . . . . . . . . . . . . . ",
"+ + + + + + + + + + + + + + + + + + + + + + + + + + + ",
"@ # @ @ $ % @ @ @ @ @ # @ @ $ % @ @ # @ @ $ % @ @ @ @ ",
"& * = = $ - * $ @ - & * = = $ - * & * = = $ - * $ @ - ",
"* ; * > ; * * , * * * ; * > ; * * * ; * > ; * * , * * ",
"> , ' ) ' > ' ' ' ! > , ' ) ' > ' > , ' ) ' > ' ' ' ! ",
"' ~ { ] ' ^ ] ' ' / ( _ : < : [ } / ~ { ] ' ^ ] ' ' ' ",
"| | | 1 | | 2 2 3 4 5 6 | 7 | 8 5 4 3 | 1 | | 2 2 | 1 ",
"9 0 a | | | | b c d e e e e e e e d c f | | | | | | g ",
"0 g h h i a j c ' e e e e e e e e e | c k i a 0 i i i ",
"l m l n m o : d e e e e e e e e e e e d 4 o m p q i i ",
"/ / / / / r 5 e e e e e e e e e e e e e s r / / / / / ",
"/ / t u v w 8 e e e e e | x | e e e e e 8 w / / y / z ",
"z z z z z : | e e e e * A B C * e e e e | : z z z z z ",
"z D E E D F 7 e e e * G H I J K * e e e 7 F z L E L E ",
"M E N E E : | e e 7 O J P e P J G 7 e e | : E E Q E E ",
"R M R S M T 8 e e e c P e e e P c e e e 6 U R E R N d ",
"d d V d d W 5 e e e e e e e e e e e e e s W X d d d d ",
"Y Z V V V ` : d e e e e e e e e e e e  .4 ..Y  .d  .Z ",
" . . .+. . .@.c | e e e e e e e e e | c (  . .#.$.%. .",
"&.*.=.*.$.+.=.-.c d e e e e e e e  .c ;.*.$.+.=.$.*.$.",
"*.>.,.'.*.).!.~.r : s 8 | 7 | 6 s : {.,.'.*.).!.~.*.~.",
"!.,.!.!.!.!.!.!.!.6 ].^./.< /.w ].8 ,.!.!.!.!.!.!.!.!.",
"(...(.!.(._.!.!.....(...(.!.(._.!.(...(.!.(._.!.!.....",
":.:.:.:.:.:...:.<.:.:.:.:.:.:.:...:.:.:.:.:.:...:.<.:.",
"[.}.}.8 |.:.1.}.[.1.[.}.}.8 |.:.1.[.}.}.8 |.:.1.}.[.1.",
"8 8 8 8 8 8 8 8 8 8 8 8 8 8 8 8 8 8 8 8 8 8 8 8 8 8 8 ",
"2.3.3.4.5.3.3.3.4.8 2.3.3.4.5.3.3.2.3.3.4.5.3.3.3.4.8 "};
