/* XPM */
static char * maximize_active_xpm[] = {
"27 28 138 2",
"  	c None",
". 	c #6A6A6A",
"+ 	c #F5F5F5",
"@ 	c #E4E4E4",
"# 	c #E4E4E3",
"$ 	c #E3E4E4",
"% 	c #E3E3E4",
"& 	c #E4E3E3",
"* 	c #E3E3E3",
"= 	c #E3E4E3",
"- 	c #E4E3E4",
"; 	c #E2E3E3",
"> 	c #E3E2E2",
", 	c #E3E3E2",
"' 	c #E2E2E2",
") 	c #E3E2E3",
"! 	c #DDDEDD",
"~ 	c #D2D1D1",
"{ 	c #C7C7C7",
"] 	c #C2C2C2",
"^ 	c #C0C0C0",
"/ 	c #C3C3C3",
"( 	c #D1D1D1",
"_ 	c #DFDEDE",
": 	c #E2E3E2",
"< 	c #E2E2E1",
"[ 	c #E1E1E2",
"} 	c #E2E1E2",
"| 	c #E1E2E2",
"1 	c #E0E0E0",
"2 	c #CFCFCF",
"3 	c #C1C1C1",
"4 	c #BFBFBF",
"5 	c #DFDFE0",
"6 	c #E1E1E1",
"7 	c #E1E2E1",
"8 	c #C9C9C9",
"9 	c #D4D4D4",
"0 	c #E8E8E8",
"a 	c #F4F4F4",
"b 	c #F8F8F8",
"c 	c #D3D3D3",
"d 	c #DEDFDE",
"e 	c #E2E1E1",
"f 	c #E1E0E1",
"g 	c #E0E1E1",
"h 	c #E1E0E0",
"i 	c #DFDFDF",
"j 	c #CBCBCB",
"k 	c #C6C6C6",
"l 	c #ECECEC",
"m 	c #F6F6F6",
"n 	c #EBEBEB",
"o 	c #E0E1E0",
"p 	c #E0E0E1",
"q 	c #D2D2D2",
"r 	c #C4C4C4",
"s 	c #F0F0F0",
"t 	c #EFEFEF",
"u 	c #C5C5C5",
"v 	c #E0E0DF",
"w 	c #DFE0E0",
"x 	c #DCDCDD",
"y 	c #F1F1F1",
"z 	c #E7E7E7",
"A 	c #DFE0DF",
"B 	c #E0DFE0",
"C 	c #D6D6D6",
"D 	c #CECECE",
"E 	c #DFDEDF",
"F 	c #DEDEDE",
"G 	c #E6E6E6",
"H 	c #7D7D7D",
"I 	c #DFDFDE",
"J 	c #BCBCBC",
"K 	c #EAEAEA",
"L 	c #797979",
"M 	c #4F4F4F",
"N 	c #787878",
"O 	c #E5E5E5",
"P 	c #BDBDBD",
"Q 	c #DEDDDD",
"R 	c #DDDDDD",
"S 	c #BBBBBB",
"T 	c #7E7E7E",
"U 	c #5C5C5C",
"V 	c #CCCCCC",
"W 	c #5F5F5F",
"X 	c #7A7A7A",
"Y 	c #DDDEDE",
"Z 	c #DDDCDC",
"` 	c #DDDCDD",
" .	c #7F7F7F",
"..	c #5E5E5E",
"+.	c #D5D5D5",
"@.	c #DCDDDD",
"#.	c #DCDDDC",
"$.	c #DDDDDC",
"%.	c #D7D7D7",
"&.	c #DCDCDC",
"*.	c #DBDCDC",
"=.	c #DADADA",
"-.	c #CACACA",
";.	c #DADAD9",
">.	c #DBDBDC",
",.	c #DCDBDB",
"'.	c #D8D8D8",
").	c #BABABA",
"!.	c #DBDBDB",
"~.	c #DBDADB",
"{.	c #B9B9B9",
"].	c #D0D0D0",
"^.	c #DADBDB",
"/.	c #DBDADA",
"(.	c #DBDBDA",
"_.	c #DADADB",
":.	c #DADBDA",
"<.	c #D9D9DA",
"[.	c #D9DAD9",
"}.	c #DAD9DA",
"|.	c #D9DADA",
"1.	c #D9D9D9",
"2.	c #B8B8B8",
"3.	c #BEBEBE",
"4.	c #B6B6B6",
"5.	c #B2B2B2",
"6.	c #D9D8D9",
"7.	c #D8D9D9",
"8.	c #D9D8D8",
"9.	c #D8D9D8",
"0.	c #D7D8D8",
"a.	c #D7D8D7",
"b.	c #D7D7D8",
"c.	c #D8D7D8",
"d.	c #D6D7D6",
"e.	c #D6D6D7",
"f.	c #D6D7D7",
"g.	c #D7D6D6",
". . . . . . . . . . . . . . . . . . . . . . . . . . . ",
"+ + + + + + + + + + + + + + + + + + + + + + + + + + + ",
"@ # @ @ $ % @ @ @ @ @ # @ @ $ % @ @ # @ @ $ % @ @ @ @ ",
"& * = = $ - * $ @ - & * = = $ - * & * = = $ - * $ @ - ",
"* ; * > ; * * , * * * ; * > ; * * * ; * > ; * * , * * ",
"> , ' ) ' > ' ' ' ! ~ { ] ^ / { ( _ , ' ) ' > ' ' ' : ",
"' < [ } ' | } 1 2 3 ^ ^ 4 4 4 ^ ^ ] 2 5 } ' | } ' ' ' ",
"6 6 6 7 6 6 _ 8 3 ^ 9 0 a b a 0 c ^ 3 8 d 6 6 e e 6 7 ",
"f g h 6 6 i j ] k l m m m m m m m n k ] j i 6 6 6 6 o ",
"g o p p 1 q r k s a a a a a a a a a t u r q h g 1 1 1 ",
"v 5 v w x 8 ^ 0 y y y y y y y y y y y z ^ 8 x A B 1 1 ",
"i i i i C k D t t t t t t t t t t t t t D k C i i i i ",
"i i E _ q 3 F l l l l l G H G l l l l l F 3 q i I i F ",
"F F F F ( J G K K K K z L M N z K K K K O P ( F F F F ",
"F Q R R q S G z z z @ T U V W X * z z z G S q Y R Y R ",
"Z R ` R 9 J 1 @ @ *  ...6 l ' .. .* @ @ 1 J +.R @.R R ",
"#.Z #.$.%.4 C ' ' ' S 6 G ' G ' S ' ' ' +.^ %.R #.` &.",
"&.&.*.&.=.-.u i i i K @ i i i @ K i i i u -.;.&.&.&.&.",
">.,.*.*.*.'.).+.R R R R R R R R R R R +.).'.>.!.&.!.,.",
"!.!.!.~.!.&.2 ).%.=.=.=.=.=.=.=.=.=.%.{.].&.!.^./.(.!.",
"_.=.:.=./.~.! j {.( '.'.'.'.'.'.'.( {.j R /.~.:./.=./.",
"=.<.[.}.=.|.1.i ( 2.4 -.( 9 ( -.3.2.q i ~.=.|.1.;.=.;.",
"1.[.1.1.1.1.1.1.F i 2 4 4.5.4.4 2 1 F 1.1.1.1.1.1.1.1.",
"6.7.6.1.6.8.1.1.7.|.F | * @ * 6 F }.7.6.1.6.8.1.1.7.7.",
"'.'.'.'.'.'.7.'.9.'.'.'.'.'.'.'.7.'.'.'.'.'.'.7.'.9.'.",
"0.a.a.%.b.'.c.a.0.c.0.a.a.%.b.'.c.0.a.a.%.b.'.c.a.0.c.",
"%.%.%.%.%.%.%.%.%.%.%.%.%.%.%.%.%.%.%.%.%.%.%.%.%.%.%.",
"d.e.e.f.g.e.e.e.f.%.d.e.e.f.g.e.e.d.e.e.f.g.e.e.e.f.%."};
