/* XPM */
static char * top_right_inactive_xpm[] = {
"8 28 71 1",
" 	c None",
".	c #6A6A6A",
"+	c #F5F5F5",
"@	c #E4E4E4",
"#	c #EFEFEF",
"$	c #E3E4E4",
"%	c #E3E3E3",
"&	c #E4E3E4",
"*	c #E3E3E2",
"=	c #E2E3E3",
"-	c #E3E2E2",
";	c #E2E2E2",
">	c #E3E2E3",
",	c #E2E1E2",
"'	c #E1E2E2",
")	c #E1E1E2",
"!	c #E2E1E1",
"~	c #E1E1E1",
"{	c #E1E2E1",
"]	c #E1E0E0",
"^	c #E0E1E1",
"/	c #E0E0E0",
"(	c #E0E0E1",
"_	c #E0E1E0",
":	c #E0DFE0",
"<	c #DFE0DF",
"[	c #DFDFE0",
"}	c #DFE0E0",
"|	c #E0E0DF",
"1	c #DFDFDF",
"2	c #DFDFDE",
"3	c #DEDFDF",
"4	c #DFDEDE",
"5	c #DFDEDF",
"6	c #DEDEDE",
"7	c #DDDDDD",
"8	c #DDDEDE",
"9	c #DEDDDD",
"0	c #DCDDDD",
"a	c #DDDCDD",
"b	c #DCDDDC",
"c	c #DDDCDC",
"d	c #DDDDDC",
"e	c #DCDCDC",
"f	c #DCDCDB",
"g	c #DBDCDC",
"h	c #DBDBDB",
"i	c #DBDBDC",
"j	c #DCDBDB",
"k	c #DBDADA",
"l	c #DADBDB",
"m	c #DBDADB",
"n	c #DADBDA",
"o	c #DADADA",
"p	c #DADAD9",
"q	c #D9D9D9",
"r	c #D9DADA",
"s	c #DAD9DA",
"t	c #D9DAD9",
"u	c #D9D9DA",
"v	c #D9D8D8",
"w	c #D9D8D9",
"x	c #D8D9D9",
"y	c #D8D8D8",
"z	c #D7D8D7",
"A	c #D8D7D8",
"B	c #D7D7D8",
"C	c #D7D7D7",
"D	c #D6D6D7",
"E	c #D7D6D6",
"F	c #D6D7D7",
"...     ",
"+++..   ",
"@@#++.  ",
"$%&$#+. ",
"*%%=-+. ",
";;-;>#+.",
";,';,)#.",
"!!~~{~@.",
"~~~~~]^.",
"/^]/((_.",
":<[[}|[.",
"1111111.",
"2113451.",
"6666666.",
"7869779.",
"07777a7.",
"b7bcdbc.",
"eefeege.",
"ehigggj.",
"klhhmhh.",
"knmkono.",
"pqrostu.",
"qqqqqqt.",
"qqvwqwx.",
"yxyyyyy.",
"zAyBCzz.",
"CCCCCCC.",
"DDDEFDD."};
