<?xml version="1.0" encoding="UTF-8" standalone="no"?>
<!-- Created with Inkscape (http://www.inkscape.org/) -->

<svg
   xmlns:dc="http://purl.org/dc/elements/1.1/"
   xmlns:cc="http://creativecommons.org/ns#"
   xmlns:rdf="http://www.w3.org/1999/02/22-rdf-syntax-ns#"
   xmlns:svg="http://www.w3.org/2000/svg"
   xmlns="http://www.w3.org/2000/svg"
   xmlns:sodipodi="http://sodipodi.sourceforge.net/DTD/sodipodi-0.dtd"
   xmlns:inkscape="http://www.inkscape.org/namespaces/inkscape"
   width="52"
   height="22"
   id="svg3952"
   version="1.1"
   inkscape:version="0.48.4 r9939"
   sodipodi:docname="switch-off.svg">
  <defs
     id="defs3954" />
  <sodipodi:namedview
     id="base"
     pagecolor="#ffffff"
     bordercolor="#666666"
     borderopacity="1.0"
     inkscape:pageopacity="0.0"
     inkscape:pageshadow="2"
     inkscape:zoom="7"
     inkscape:cx="35.830827"
     inkscape:cy="18.285714"
     inkscape:current-layer="layer1"
     showgrid="true"
     inkscape:grid-bbox="true"
     inkscape:document-units="px"
     inkscape:window-width="837"
     inkscape:window-height="515"
     inkscape:window-x="746"
     inkscape:window-y="95"
     inkscape:window-maximized="0" />
  <metadata
     id="metadata3957">
    <rdf:RDF>
      <cc:Work
         rdf:about="">
        <dc:format>image/svg+xml</dc:format>
        <dc:type
           rdf:resource="http://purl.org/dc/dcmitype/StillImage" />
        <dc:title></dc:title>
      </cc:Work>
    </rdf:RDF>
  </metadata>
  <g
     id="layer1"
     inkscape:label="Layer 1"
     inkscape:groupmode="layer"
     transform="translate(0,-26)">
    <g
       transform="translate(0,-1060.3622)"
       id="g3918">
      <rect
         ry="11"
         y="1086.3622"
         x="0"
         height="22"
         width="52"
         id="rect3871"
         style="fill:#b3b3b3;fill-opacity:1;fill-rule:nonzero;stroke:none" />
      <path
         inkscape:connector-curvature="0"
         id="path3875"
         d="m 45,1101.3622 -2,0 -2,-2 -2,2 -2,0 0,-2 2,-2 -2,-2 0,-2 2,0 2,2 2,-2 2,0 0,2 -2,2 2,2 z"
         style="fill:#ffffff;fill-opacity:0.33333333;stroke:none" />
      <path
         sodipodi:type="arc"
         style="fill:#000000;fill-opacity:0.06222223;fill-rule:nonzero;stroke:none"
         id="path3877"
         sodipodi:cx="41"
         sodipodi:cy="10.5"
         sodipodi:rx="8"
         sodipodi:ry="7.5"
         d="M 49,10.5 C 49,14.642136 45.418278,18 41,18 36.581722,18 33,14.642136 33,10.5 33,6.3578644 36.581722,3 41,3 c 4.418278,0 8,3.3578644 8,7.5 z"
         transform="matrix(1.25,0,0,1.3333333,-40.25,1083.3622)" />
      <path
         transform="matrix(1.125,0,0,1.2,-35.125,1084.7622)"
         d="M 49,10.5 C 49,14.642136 45.418278,18 41,18 36.581722,18 33,14.642136 33,10.5 33,6.3578644 36.581722,3 41,3 c 4.418278,0 8,3.3578644 8,7.5 z"
         sodipodi:ry="7.5"
         sodipodi:rx="8"
         sodipodi:cy="10.5"
         sodipodi:cx="41"
         id="path3879"
         style="fill:#f7f7f7;fill-opacity:0.70666665;fill-rule:nonzero;stroke:none"
         sodipodi:type="arc" />
      <path
         sodipodi:type="arc"
         style="fill:#000000;fill-opacity:0.0627451;fill-rule:nonzero;stroke:none"
         id="path3881"
         sodipodi:cx="40.5"
         sodipodi:cy="10.5"
         sodipodi:rx="3.5"
         sodipodi:ry="3.5"
         d="M 44,10.5 C 44,12.432997 42.432997,14 40.5,14 38.567003,14 37,12.432997 37,10.5 37,8.5670034 38.567003,7 40.5,7 42.432997,7 44,8.5670034 44,10.5 z"
         transform="matrix(1.7142857,0,0,1.7142857,-58.428571,1079.3622)" />
      <path
         transform="matrix(1.1428571,0,0,1.1428571,-35.285714,1085.3622)"
         d="M 44,10.5 C 44,12.432997 42.432997,14 40.5,14 38.567003,14 37,12.432997 37,10.5 37,8.5670034 38.567003,7 40.5,7 42.432997,7 44,8.5670034 44,10.5 z"
         sodipodi:ry="3.5"
         sodipodi:rx="3.5"
         sodipodi:cy="10.5"
         sodipodi:cx="40.5"
         id="path3883"
         style="fill:#b3b3b3;fill-opacity:1;fill-rule:nonzero;stroke:none"
         sodipodi:type="arc" />
    </g>
  </g>
</svg>
