<?xml version="1.0" encoding="UTF-8" standalone="no"?>
<!-- Generator: Adobe Illustrator 13.0.2, SVG Export Plug-In . SVG Version: 6.00 Build 14948)  -->

<svg
   xmlns:dc="http://purl.org/dc/elements/1.1/"
   xmlns:cc="http://creativecommons.org/ns#"
   xmlns:rdf="http://www.w3.org/1999/02/22-rdf-syntax-ns#"
   xmlns:svg="http://www.w3.org/2000/svg"
   xmlns="http://www.w3.org/2000/svg"
   xmlns:sodipodi="http://sodipodi.sourceforge.net/DTD/sodipodi-0.dtd"
   xmlns:inkscape="http://www.inkscape.org/namespaces/inkscape"
   version="1.0"
   id="Foreground"
   x="0px"
   y="0px"
   width="32"
   height="32"
   viewBox="0 0 23.272727 23.272727"
   enable-background="new 0 0 16 16"
   xml:space="preserve"
   sodipodi:version="0.32"
   inkscape:version="0.48.4 r9939"
   sodipodi:docname="close-window-hover.svg"
   inkscape:output_extension="org.inkscape.output.svg.inkscape"><metadata
   id="metadata2399"><rdf:RDF><cc:Work
       rdf:about=""><dc:format>image/svg+xml</dc:format><dc:type
         rdf:resource="http://purl.org/dc/dcmitype/StillImage" /><dc:title></dc:title></cc:Work></rdf:RDF></metadata><defs
   id="defs2397"><linearGradient
     id="linearGradient3173"><stop
       style="stop-color:#c4c4c4;stop-opacity:1;"
       offset="0"
       id="stop3175" /><stop
       style="stop-color:#ffffff;stop-opacity:1;"
       offset="1"
       id="stop3177" /></linearGradient><inkscape:perspective
     sodipodi:type="inkscape:persp3d"
     inkscape:vp_x="0 : 8 : 1"
     inkscape:vp_y="0 : 1000 : 0"
     inkscape:vp_z="16 : 8 : 1"
     inkscape:persp3d-origin="8 : 5.3333333 : 1"
     id="perspective2401" /><filter
     color-interpolation-filters="sRGB"
     inkscape:collect="always"
     id="filter16524-9"
     x="-0.212979"
     width="1.425958"
     y="-0.21305652"
     height="1.426113"><feGaussianBlur
       inkscape:collect="always"
       stdDeviation="0.71020915"
       id="feGaussianBlur16526-0" /></filter></defs><sodipodi:namedview
   inkscape:window-height="680"
   inkscape:window-width="977"
   inkscape:pageshadow="2"
   inkscape:pageopacity="0"
   guidetolerance="10.0"
   gridtolerance="10.0"
   objecttolerance="10.0"
   borderopacity="1.0"
   bordercolor="#666666"
   pagecolor="#000000"
   id="base"
   showgrid="false"
   inkscape:zoom="1"
   inkscape:cx="20.140654"
   inkscape:cy="16.197052"
   inkscape:window-x="176"
   inkscape:window-y="254"
   inkscape:current-layer="Foreground"
   showguides="true"
   inkscape:guide-bbox="true"
   borderlayer="true"
   inkscape:showpageshadow="false"
   inkscape:window-maximized="0"><inkscape:grid
     type="xygrid"
     id="grid11246"
     empspacing="5"
     visible="true"
     enabled="true"
     snapvisiblegridlinesonly="true" /></sodipodi:namedview>

<g
   id="g3052"><path
     inkscape:connector-curvature="0"
     sodipodi:nodetypes="csssc"
     style="color:#000000;fill:#000000;fill-opacity:0.41333331;fill-rule:nonzero;stroke:none;stroke-width:1.4545455;marker:none;visibility:visible;display:inline;overflow:visible;enable-background:accumulate"
     id="path3813"
     d="m 4.3636364,11.636364 c 0,-4.0163644 3.2563637,-7.2727277 7.2727276,-7.2727277 4.016362,0 7.272727,3.2563633 7.272727,7.2727277 0,4.016364 -3.256365,7.272727 -7.272727,7.272727 -4.016364,0 -7.2727277,-3.256363 -7.2727277,-7.272728 z"
     clip-rule="evenodd" /><path
     inkscape:connector-curvature="0"
     sodipodi:nodetypes="csssc"
     style="color:#000000;fill:#000000;fill-opacity:0.41333331;fill-rule:nonzero;stroke:none;stroke-width:1.4545455;marker:none;visibility:visible;display:inline;overflow:visible;enable-background:accumulate"
     id="path3793"
     d="m 4.3636364,11.636364 c 0,-4.0163644 3.2563637,-7.2727277 7.2727276,-7.2727277 4.016362,0 7.272727,3.2563633 7.272727,7.2727277 0,4.016364 -3.256365,7.272727 -7.272727,7.272727 -4.016364,0 -7.2727277,-3.256363 -7.2727277,-7.272728 z"
     clip-rule="evenodd" /><path
     clip-rule="evenodd"
     d="m 2.5454346,11.636363 c 0,-5.0204656 4.0704634,-9.0909284 9.0909274,-9.0909284 5.020464,0 9.09093,4.0704628 9.09093,9.0909284 0,5.020465 -4.070466,9.090929 -9.09093,9.090929 -5.0204641,0 -9.0909274,-4.070464 -9.0909274,-9.090931 z"
     id="path3789"
     style="color:#000000;fill:none;stroke:#000000;stroke-width:0.72723293;stroke-miterlimit:4;stroke-opacity:0.25098039;stroke-dasharray:none;marker:none;visibility:visible;display:inline;overflow:visible;enable-background:accumulate"
     sodipodi:nodetypes="csssc"
     inkscape:connector-curvature="0" /><path
     clip-rule="evenodd"
     d="m 4.3636364,11.636364 c 0,-4.0163644 3.2563637,-7.2727277 7.2727276,-7.2727277 4.016362,0 7.272727,3.2563633 7.272727,7.2727277 0,4.016364 -3.256365,7.272727 -7.272727,7.272727 -4.016364,0 -7.2727277,-3.256363 -7.2727277,-7.272728 z"
     id="path3007"
     style="color:#000000;fill:#000000;fill-opacity:0.41333331;fill-rule:nonzero;stroke:none;stroke-width:1.4545455;marker:none;visibility:visible;display:inline;overflow:visible;enable-background:accumulate"
     sodipodi:nodetypes="csssc"
     inkscape:connector-curvature="0" /><path
     d="m 8.7295596,9.4545459 0.7269867,0 c 0.0075,-8.72e-5 0.01511,-3.345e-4 0.02272,0 0.185346,0.00815 0.370669,0.093513 0.499803,0.2272728 L 11.637507,11.34091 13.318663,9.6818187 C 13.51177,9.5141823 13.643389,9.4596368 13.818467,9.4545459 l 0.726987,0 0,0.7272731 c 0,0.208341 -0.02496,0.400472 -0.181746,0.545454 l -1.658438,1.659091 1.63572,1.636363 c 0.13681,0.136851 0.204458,0.329782 0.204464,0.522728 l 0,0.727272 -0.726987,0 c -0.19287,-7e-6 -0.385728,-0.06771 -0.522521,-0.204545 l -1.658438,-1.659091 -1.6584377,1.659091 c -0.136792,0.136865 -0.329659,0.204545 -0.522521,0.204545 l -0.7269867,0 0,-0.727272 c -2.2e-6,-0.192938 0.067653,-0.385877 0.204465,-0.522728 L 10.592463,12.386364 8.9340246,10.727273 C 8.780818,10.585724 8.7136314,10.386 8.7295596,10.181819 l 0,-0.7272731 z"
     inkscape:connector-curvature="0"
     id="path3050"
     style="font-size:medium;font-style:normal;font-variant:normal;font-weight:normal;font-stretch:normal;text-indent:0;text-align:start;text-decoration:none;line-height:normal;letter-spacing:normal;word-spacing:normal;text-transform:none;direction:ltr;block-progression:tb;writing-mode:lr-tb;text-anchor:start;color:#bebebe;fill:#000000;fill-opacity:1;fill-rule:nonzero;stroke:none;stroke-width:1.78124988;marker:none;visibility:visible;display:inline;overflow:visible;enable-background:new;font-family:Andale Mono;-inkscape-font-specification:Andale Mono"
     sodipodi:nodetypes="ccsccccccccccccccccccccccc" /><path
     sodipodi:nodetypes="ccsccccccccccccccccccccccc"
     style="font-size:medium;font-style:normal;font-variant:normal;font-weight:normal;font-stretch:normal;text-indent:0;text-align:start;text-decoration:none;line-height:normal;letter-spacing:normal;word-spacing:normal;text-transform:none;direction:ltr;block-progression:tb;writing-mode:lr-tb;text-anchor:start;color:#bebebe;fill:#ffffff;fill-opacity:1;fill-rule:nonzero;stroke:none;stroke-width:1.78124988;marker:none;visibility:visible;display:inline;overflow:visible;enable-background:new;font-family:Andale Mono;-inkscape-font-specification:Andale Mono"
     id="path27279-0-5"
     inkscape:connector-curvature="0"
     d="m 8.7295596,8.7273578 0.7269867,0 c 0.0075,-8.72e-5 0.01511,-3.345e-4 0.02272,0 0.185346,0.00815 0.370669,0.093513 0.499803,0.2272728 L 11.637507,10.613722 13.318663,8.9546306 C 13.51177,8.7869942 13.643389,8.7324487 13.818467,8.7273578 l 0.726987,0 0,0.7272728 c 0,0.2083418 -0.02496,0.4004727 -0.181746,0.5454544 l -1.658438,1.659091 1.63572,1.636363 c 0.13681,0.136851 0.204458,0.329782 0.204464,0.522728 l 0,0.727272 -0.726987,0 c -0.19287,-7e-6 -0.385728,-0.06771 -0.522521,-0.204545 l -1.658438,-1.659091 -1.6584377,1.659091 c -0.136792,0.136865 -0.329659,0.204545 -0.522521,0.204545 l -0.7269867,0 0,-0.727272 c -2.2e-6,-0.192938 0.067653,-0.385877 0.204465,-0.522728 L 10.592463,11.659176 8.9340246,10.000085 C 8.780818,9.858536 8.7136314,9.6588124 8.7295596,9.4546306 l 0,-0.7272728 z" /><path
     inkscape:connector-curvature="0"
     sodipodi:nodetypes="csssc"
     style="color:#000000;fill:none;stroke:#ffffff;stroke-width:1.4545455;stroke-linecap:butt;stroke-linejoin:miter;stroke-miterlimit:4;stroke-opacity:0.58823529;stroke-dasharray:none;stroke-dashoffset:0;marker:none;visibility:visible;display:inline;overflow:visible;enable-background:accumulate"
     id="path3777"
     d="m 3.6363637,11.636494 c 0,-4.4179285 3.5819418,-7.9998697 7.9998693,-7.9998697 4.417927,0 7.99987,3.5819412 7.99987,7.9998697 0,4.417928 -3.581943,7.999869 -7.99987,7.999869 -4.4179276,0 -7.9998694,-3.581941 -7.9998694,-7.99987 z"
     clip-rule="evenodd" /><path
     inkscape:connector-curvature="0"
     sodipodi:nodetypes="csssc"
     style="color:#000000;fill:none;stroke:#000000;stroke-width:0.72727275;stroke-miterlimit:4;stroke-opacity:0.09333335;stroke-dasharray:none;marker:none;visibility:visible;display:inline;overflow:visible;enable-background:accumulate"
     id="path3791"
     d="m 1.8182174,11.636363 c 0,-5.4220708 4.3960752,-9.8181453 9.8181456,-9.8181453 5.42207,0 9.818147,4.3960745 9.818147,9.8181453 0,5.42207 -4.396077,9.818146 -9.818147,9.818146 -5.4220705,0 -9.8181456,-4.396076 -9.8181456,-9.818148 z"
     clip-rule="evenodd" /></g></svg>