/* XPM */
static char * close_pressed_xpm[] = {
"26 26 16 1",
" 	c None",
".	c #6A6A6A",
"+	c #E5E5E5",
"@	c #D6D6D6",
"#	c #D4A0A0",
"$	c #D36464",
"%	c #D35F5F",
"&	c #D4A1A1",
"*	c #FFFFFF",
"=	c #F6DFDF",
"-	c #D66A6A",
";	c #D56868",
">	c #F5DCDC",
",	c #F5DBDB",
"'	c #D56666",
")	c #F4D8D8",
"..........................",
"++++++++++++++++++++++++++",
"@@@@@@@@@@@@@@@@@@@@@@@@@@",
"@@@#$%%%%%%%%%%%%%%%%$&@@@",
"@@@$%%%%%%%%%%%%%%%%%%$@@@",
"@@@%%%%%%%%%%%%%%%%%%%%@@@",
"@@@%%%%%%%%%%%%%%%%%%%%@@@",
"@@@%%%%%%%%%%%%%%%%%%%%@@@",
"@@@%%%%%%%%%%%%%%%%%%%%@@@",
"@@@%%%%%%*=-%%;>*%%%%%%@@@",
"@@@%%%%%%,*,;;,*,%%%%%%@@@",
"@@@%%%%%%;,*,,*,;%%%%%%@@@",
"@@@%%%%%%%')**,;%%%%%%%@@@",
"@@@%%%%%%%;>**=-%%%%%%%@@@",
"@@@%%%%%%;,*,,*,;%%%%%%@@@",
"@@@%%%%%%,*,;;,*,%%%%%%@@@",
"@@@%%%%%%*,;%%')*%%%%%%@@@",
"@@@%%%%%%%%%%%%%%%%%%%%@@@",
"@@@%%%%%%%%%%%%%%%%%%%%@@@",
"@@@%%%%%%%%%%%%%%%%%%%%@@@",
"@@@%%%%%%%%%%%%%%%%%%%%@@@",
"@@@$%%%%%%%%%%%%%%%%%%$@@@",
"@@@&$%%%%%%%%%%%%%%%%$&@@@",
"@@@@@@@@@@@@@@@@@@@@@@@@@@",
"@@@@@@@@@@@@@@@@@@@@@@@@@@",
"@@@@@@@@@@@@@@@@@@@@@@@@@@"};
