/* XPM */
static char * close_inactive_xpm[] = {
"26 26 13 1",
" 	c None",
".	c #6A6A6A",
"+	c #E5E5E5",
"@	c #D6D6D6",
"#	c #DEDEDE",
"$	c #DADADA",
"%	c #757575",
"&	c #8A8A8A",
"*	c #D7D7D7",
"=	c #8B8B8B",
"-	c #8C8C8C",
";	c #D9D9D9",
">	c #8F8F8F",
"..........................",
"++++++++++++++++++++++++++",
"@@@@@@@@@@@@@@@@@@@@@@@@@@",
"@@@@@@@@@@@@@@@@@@@@@@@@@@",
"@@@@@@@@@@@@@@@@@@@@@@@@@@",
"@@@@@@@@@@@@@@@@@@@@@@@@@@",
"@@@@@@@@@@@@@@@@@@@@@@@@@@",
"@@@@@@@@@@@@@@@@@@@@@@@@@@",
"@@@@@@@@###$@@$###@@@@@@@@",
"@@@@@@@@#%&*$$*=%#@@@@@@@@",
"@@@@@@@@#-%-**-%-#@@@@@@@@",
"@@@@@@@@;*-%--%-*$@@@@@@@@",
"@@@@@@@@@;;>%%-*$@@@@@@@@@",
"@@@@@@@@@$*=%%&*$@@@@@@@@@",
"@@@@@@@@$*-%--%-*$@@@@@@@@",
"@@@@@@@@#-%-**-%-#@@@@@@@@",
"@@@@@@@@#%-*$;;>%#@@@@@@@@",
"@@@@@@@@###$@@;###@@@@@@@@",
"@@@@@@@@@@@@@@@@@@@@@@@@@@",
"@@@@@@@@@@@@@@@@@@@@@@@@@@",
"@@@@@@@@@@@@@@@@@@@@@@@@@@",
"@@@@@@@@@@@@@@@@@@@@@@@@@@",
"@@@@@@@@@@@@@@@@@@@@@@@@@@",
"@@@@@@@@@@@@@@@@@@@@@@@@@@",
"@@@@@@@@@@@@@@@@@@@@@@@@@@",
"@@@@@@@@@@@@@@@@@@@@@@@@@@"};
