/* XPM */
static char * close_prelight_xpm[] = {
"26 26 13 1",
" 	c None",
".	c #6A6A6A",
"+	c #E5E5E5",
"@	c #D6D6D6",
"#	c #8BB8D8",
"$	c #4B9DDB",
"%	c #95BAD8",
"&	c #9FC8E7",
"*	c #90B9D8",
"=	c #E4E4E4",
"-	c #9DC2DF",
";	c #99C5E6",
">	c #F3F3F3",
"..........................",
"++++++++++++++++++++++++++",
"@@@@@@@@@@@@@@@@@@@@@@@@@@",
"@@@@@@@@@@@@@@@@@@@@@@@@@@",
"@@@@@@@@@@@@@@@@@@@@@@@@@@",
"@@@@@@@@@@@@@@@@@@@@@@@@@@",
"@@@@@@@@@@@@@@@@@@@@@@@@@@",
"@@@@@@@@@@@@@@@@@@@@@@@@@@",
"@@@@@@@@@@@@@@@@@@@@@@@@@@",
"@@@@@@@@#$%@@@@%$#@@@@@@@@",
"@@@@@@@@+&$*@@*$&+@@@@@@@@",
"@@@@@@@@@=&$**$&=@@@@@@@@@",
"@@@@@@@@@@=&$$&=@@@@@@@@@@",
"@@@@@@@@@@@-$$-@@@@@@@@@@@",
"@@@@@@@@@@%$;;$%@@@@@@@@@@",
"@@@@@@@@@*$&++&$*@@@@@@@@@",
"@@@@@@@@*$&=@@=&$*@@@@@@@@",
"@@@@@@@@=>=@@@@=>=@@@@@@@@",
"@@@@@@@@@@@@@@@@@@@@@@@@@@",
"@@@@@@@@@@@@@@@@@@@@@@@@@@",
"@@@@@@@@@@@@@@@@@@@@@@@@@@",
"@@@@@@@@@@@@@@@@@@@@@@@@@@",
"@@@@@@@@@@@@@@@@@@@@@@@@@@",
"@@@@@@@@@@@@@@@@@@@@@@@@@@",
"@@@@@@@@@@@@@@@@@@@@@@@@@@",
"@@@@@@@@@@@@@@@@@@@@@@@@@@"};
