/* XPM */
static char * maximize_pressed_xpm[] = {
"26 26 13 1",
" 	c None",
".	c #6A6A6A",
"+	c #E5E5E5",
"@	c #D6D6D6",
"#	c #8DBAE8",
"$	c #3A9BFD",
"%	c #3399FF",
"&	c #8EBAE8",
"*	c #92C9FF",
"=	c #FFFFFF",
"-	c #A0CFFF",
";	c #99CCFF",
">	c #8FBBE7",
"..........................",
"++++++++++++++++++++++++++",
"@@@@@@@@@@@@@@@@@@@@@@@@@@",
"@@@#$%%%%%%%%%%%%%%%%$&@@@",
"@@@$%%%%%%%%%%%%%%%%%%$@@@",
"@@@%%%%%%%%%%%%%%%%%%%%@@@",
"@@@%%%%%%%%%%%%%%%%%%%%@@@",
"@@@%%%%%%%%%%%%%%%%%%%%@@@",
"@@@%%%%%%%%%%%%%%%%%%%%@@@",
"@@@%%%%%%%%*=====%%%%%%@@@",
"@@@%%%%%%%%%*====%%%%%%@@@",
"@@@%%%%%%-%%%%%==%%%%%%@@@",
"@@@%%%%%%=-%%%%==%%%%%%@@@",
"@@@%%%%%%==%%%%*=%%%%%%@@@",
"@@@%%%%%%==%%%%%;%%%%%%@@@",
"@@@%%%%%%====-%%%%%%%%%@@@",
"@@@%%%%%%=====-%%%%%%%%@@@",
"@@@%%%%%%%%%%%%%%%%%%%%@@@",
"@@@%%%%%%%%%%%%%%%%%%%%@@@",
"@@@%%%%%%%%%%%%%%%%%%%%@@@",
"@@@%%%%%%%%%%%%%%%%%%%%@@@",
"@@@$%%%%%%%%%%%%%%%%%%$@@@",
"@@@&$%%%%%%%%%%%%%%%%$>@@@",
"@@@@@@@@@@@@@@@@@@@@@@@@@@",
"@@@@@@@@@@@@@@@@@@@@@@@@@@",
"@@@@@@@@@@@@@@@@@@@@@@@@@@"};
